<mxfile host="Electron" modified="2023-08-23T21:53:59.369Z" agent="Mozilla/5.0 (Macintosh; Intel Mac OS X 10_15_7) AppleWebKit/537.36 (KHTML, like Gecko) draw.io/21.6.8 Chrome/114.0.5735.289 Electron/25.5.0 Safari/537.36" etag="-mnu0qMyqt_iHKp5iyWr" version="21.6.8" type="device">
  <diagram name="Seite-1" id="ow4zt20TIQKURRLAiHwZ">
    <mxGraphModel dx="1273" dy="2023" grid="1" gridSize="10" guides="1" tooltips="1" connect="1" arrows="1" fold="1" page="1" pageScale="1" pageWidth="827" pageHeight="1169" math="0" shadow="0">
      <root>
        <mxCell id="0" />
        <mxCell id="1" parent="0" />
        <mxCell id="WYVHdiIaD5ZPn7umsEeB-28" value="Docker Container" style="swimlane;whiteSpace=wrap;fontSize=24;html=1;gradientColor=none;swimlaneFillColor=none;swimlaneLine=1;glass=0;rounded=0;" parent="1" vertex="1">
          <mxGeometry x="120" y="-1140" width="660" height="1820" as="geometry" />
        </mxCell>
        <mxCell id="5FJPlSHttj1gH7ov65Wy-52" value="Class Specific Association rules" style="swimlane;whiteSpace=wrap;html=1;startSize=20;align=center;" parent="WYVHdiIaD5ZPn7umsEeB-28" vertex="1">
          <mxGeometry x="197" y="531" width="290" height="140" as="geometry">
            <mxRectangle x="305" y="490" width="140" height="30" as="alternateBounds" />
          </mxGeometry>
        </mxCell>
        <mxCell id="5FJPlSHttj1gH7ov65Wy-42" value="&lt;div style=&quot;background-color:#ffffff;color:#000000;font-family:&#39;JetBrains Mono&#39;,monospace;font-size:9,8pt;&quot;&gt;&lt;pre&gt;predict_l_for_o_given_p&lt;/pre&gt;&lt;/div&gt;" style="shape=rect;rounded=1;whiteSpace=wrap;html=1;shadow=0;strokeColor=none;fillColor=#64BBE2;arcSize=30;fontSize=14;spacingLeft=0;fontStyle=1;fontColor=#FFFFFF;align=center;" parent="5FJPlSHttj1gH7ov65Wy-52" vertex="1">
          <mxGeometry y="30.5" width="290" height="40" as="geometry" />
        </mxCell>
        <mxCell id="5FJPlSHttj1gH7ov65Wy-44" value="&lt;div style=&quot;background-color:#ffffff;color:#000000;font-family:&#39;JetBrains Mono&#39;,monospace;font-size:9,8pt;&quot;&gt;&lt;pre&gt;predict_l_for_s_given_p&lt;/pre&gt;&lt;/div&gt;" style="shape=rect;rounded=1;whiteSpace=wrap;html=1;shadow=0;strokeColor=none;fillColor=#F8C382;arcSize=30;fontSize=14;spacingLeft=0;fontStyle=1;fontColor=#FFFFFF;align=center;" parent="5FJPlSHttj1gH7ov65Wy-52" vertex="1">
          <mxGeometry y="80.5" width="290" height="40" as="geometry" />
        </mxCell>
        <mxCell id="lhYBbnEFRuxRtRWHawOc-3" value="" style="shape=cylinder;whiteSpace=wrap;html=1;boundedLbl=1;backgroundOutline=1;" vertex="1" parent="WYVHdiIaD5ZPn7umsEeB-28">
          <mxGeometry x="214.5" y="41" width="250" height="160" as="geometry" />
        </mxCell>
        <mxCell id="lhYBbnEFRuxRtRWHawOc-9" value="" style="shape=image;verticalLabelPosition=bottom;labelBackgroundColor=default;verticalAlign=top;aspect=fixed;imageAspect=0;image=data:image/png,iVBORw0KGgoAAAANSUhEUgAAAeAAAAEpCAYAAABLM/HpAAAgAElEQVR4nOy9eZxU5Z3v//6eWrq6eqFpGmiaRXYQBYFGXKJGRcPiljGaVbNM1htnJpPr5JWXk5sxczNJbiaT+8v8Mpnc3GyTmSRj4pJxCaAxiRKjKKsEEaFBBGyaBpqm967lfO8fZ6+qxgZpoPF5+yrr1KlTp57nVHM+z3d5vo9gMBjeGsxbaiFYSC4J8dkgVwAXg84B6kHqQJMoGURagf3AZtB1WPYabGs/kGPz47kz2g+D4RxBznQDDAbDEDN3mYWlKZSpCO8E3gMyEyHpH6Pu/8S9JWho29mRAV4AfkGeR4hJK7lshq2/tU9bPwyGcwwjwAbDucq8FRaWnUKZA/oR4DZExgAFAqvuc8HtQEO71D1GxAaagR9h2/+BZe1n8+q+oeyGwXCuYgTYYDgXWbAsjjIJuA24C5jkiyi4//IlLKyhD4cEOfwZ/zgFxAa2Af8MPAIcZvNqYw0bDCdA7Ew3wGAwnGLmLUshLAb+DtVPAyMjAuu7mYkKr6+toWcJvYeAqKfPAowBrgIZh7CHcTOO0tKUH7qOGQznFkaADYZziXkr0ohej/BVYAkiViCyQnQ7vM99LSHVLfW5wmNFUoheCDIV2Ef9tBZadpkkLYNhEBgXtMFwrrBgaRpbliF8GZgDlEimCiiP2dSm8tSU5alI2JRZirhe57680JW1ONof43BfjJxt4ZvFWjJZywZdA3wNYQ2bHjdxYYPhDTACbDCcC8xfmgSuQ/kmIrMjYgm+W1kEalN5plZnuKC2n4Wje5k9sp+JVVlGltnELSVnw6HeOPu6ErzUVsYLB8vZ0V7Gqx1JOjJWcLLC8yM26JPAV7DttWz5Tea0XweDYRhhBNhgGO5ctNxCdD7wbZTLo9OJ3P+JkI7bXFDbx9JJXSyf3Mmckf2UxxVFEfdWoKqI+1lFQYWMLbxwsJzHXq3iqdcr2HY0RdYuPr8ryjlUHwC+QjyxjQ2PmcQsg2EATAzYYBjuNEwbBfJ3KDf6+/yYrfOoT+dYMbmLv15whHfPOMakqhyJGG44Vwo+Ju5HneeYBZMqs1wxroepI7L05oUDPQn68lYobgyogGABkxDpRnUrLU3dQ919g2G4YgTYYBjOzF8WB7kN1c8hkvCtUTc2KyhTR2T48Jx2/tu8NhaM6SMRAxXX0hXwP+MnVjn7FNxzOK8TMZhSnWF+XR99eWFPR5KerETF3vlMGVCPspOx03ZxcJfJjDYYSmAE2GAYztRPawD5NjAhmqkMCEyuzvKpeUf5yAVHmVCZC5KYxZ1SFIhmMO3ItYJFxNFyceK9AliijCyzOX9kP/22sOtYGT25sDsaL0Q8CiGPsImWXW2n4UoYDMMOI8AGw3CmfvrHUD7ov/asX2B0Os+d57fz0QuPMiadj8wuEnEtZCmwYAvn/koQTw4+AyPKbKaNyNDWH2NbW4q8infikBDLWJCtjJu+k5YmMzXJYCjACLDBMFxpXFqJyv9FGBWIn6N+ybjy9gnd/PfGI0yszvrWrF8Ay7eCC7zPoWm+nhiL68oOW8kCVJfZ1JXn2d2RZE9HWdCu4IsqgE7QDbTsaj+NV8ZgGBZYZ7oBBoPhJMnJ1ahOL5oOJHBedZYPzDnG9JGZqHvZm0VU6HIOPcQ9zhNkibyvIIqKErNgbl0f75lxjAmVWUAD6zeoYHktMJnG68y9xmAowPyjMBiGL+8BLF983ed0Qnnb+B6WnNeF+ILrWL3eAy+2W7SvcL+4CVuERNhzXSsVSeXKCd28fUKX0wZRNwEMR4SVCcA8bKvydF4Yg2E4ED/TDTAYTiuNjRaZsbVYWovYSRAbK9aGWG1seHT4FI6Ye0Ma8lcDoaxnQGFsOscN0zoZURadguvP1HU31N0TnoYUHBneklB+VTBH2HVMM6kqy9saenjitSoO9cSiMWVVC7gElUeAjlPUe4PhnMAIsOHcZ8GKBlQXoXoxeZ2NZdcAKZy/fxs73wf5LuYv3Y2yCbXWsuWSJvjS2VtEIp6bjVIXcT8jWKJMqMpyxYQeJ2nKF0zvCO+V+OLqP2moIAee7Iojtm5ylSe8EhLvZAzm1PZzfm0/h3orossYOsfNB2qG7FoYDMMUI8CGc5f5y+Yg3IrabwcmIdSBVIPGI2vhOgUkbJQuoA3RZuavfRZZfj+pyo08d//Zl8Fry3zAQkLLBapSnrSZU9fPyPI8gQp6tq4nu+4UJI2Kc2nLN7B0PQ902BpW9wyTR2SZNbKfNa9XhE/jbU9GpfqU9NtgOIcwAmw491iwYgyafz/o7SgzQWpA41Fl8JCwq7QapBphEjAH1evo7VzNguXfZ9Oq3ae3E2/INJxUKd96BahIKOfX9WMJFK4pGO19odhGUV+uA+nWAY4BoS6dZ3xVjrgoOS1yaacR6llwQ5JNvx4+bn6DYYgxAmw4t5i/fBFqfxZnYYJaRNy/8ZAohJfZ8zJ3oysGWUANyjyEydi6kIuW/jMj+5/gqafODmtYaIi+dtpfFlfGV2Udz7R/aOA6DuNZr77I+m7maKzXO0f4bIWyHY8ptakcVUmbo30x9+3QcUotmk8CRoANBhcjwIZzg8ZGC3vUdah9D8ilKKnAA+tN0Qk5UNV1wxbuDztZRSzQGuBqYAztqRouWf4Az6868yIiVOJZwOAnYcUtGJGyA8PYPzyM436OjjlKW8TiuqE9oS62gr3jlHRSSSdsjva5qdfRhRoqcXKyDQaDi/kHYTg3yI25Ftv6e+AKnAQrggQjIao2jjpVJpTqpJtnpUTnsEbnsyYRuRC4l359L7NuPhsGrlZE5ABwRDXu6V9krm9o2+2/Fu3X0Fxf/Idz+cTd1tDcYCko3hEe0FC4bYFt7jcGQ4iz4UZiMLw55i9dhNqfA1nsW1klFqGfX9fLDVM6uaKhhwtG9ZOMOeLbnonzclsZa15P8+DOavZ2JoMPBeeJA9NBP0uqvxVYPaR9ekOkC7DxBtFuO/MKPTmnioZEXMXqP2lYcyl2KIdd0xpJ4Arc0+Esae8zGXfpQm8hCL8spXNIH3B2uO8NhrMEI8CG4c38ZROAj4BeB2oFruXAAds4ppf/vuAI103soiJpE/Mct64K1ZRnOG9EhndM6eRzFx/mwZ3VfGN9HXs7EoWeaQuYB9zFRUtbePHxzae9vwHtfrvwRA8yeeFgTywyBQn3QHV3FaVIFcTBI8sTDpC6FWRJB++098U41m9FXfpBecx2ECPABkMI4xIyDF8WXpfESbb6IOL9LQe+43Rc+fTcNu5bto9bp3cwIpUnYYEljp0sljouVQssC+IxqE3n+NhFR3n01te4fVYHcXfNXB8RC2QZKjcyd8WZnFrzCmA7Jq0XZxV6shavtKVQS5x/3VZQ2Urc186z02/PvSxW8PCtV+8cnrlshdza7n6nbKVytN+iuTtBJrIykh8CsBFpJp4887Fzg+EswgiwYfhix+aAvg+oLLT2KhM2n11wmHsuPsTE6lwkjunFOJVwnNQVKREsC84fleGrVx3kz+ceJRnzTEf3OyziWPIeYrqYxhVn6t/QdsD22+XGgrsyFpsPpsjY4pSSBDfeq27MV/21gIN90RKUflf9JLUgzlv8cD6zrzPJ7vZkcI2iIYD9QDsbHj17C5sYDGcAI8CG4cn8G1MgC0GuDqxAQKAsZvOxC47y0QuOMjqd93OQChOM/GX5oGCfs31eTZa7Go9wy4xOYlZoTq3zkQsRrkT1TFV42gj0+K9cl3NehdfaEzz/etrZ7Q88pGAQ4riXpbDfqC++IhJ5OOcLDUTcC6sqvNKW5KXD7opIGjimXbbhucwNBoOPEWDDMCXXAFyPapAx5WrrFQ09vGvGMRoqcxFLTVHX/xzKQvIFSPwThL2ns0Zl+NDcds6v6w8dL15M+FpUp56+PofYtKodeCHwuPuxVpo74/zX9iqydqCsvnD6fWUAi9aNofvPGrlG4Qxo73GkL876A+W81uH+FMUJcOsxAmwwFGEE2DBcmYByacTlKUJtKs87p3Uwf3RfkIgrirpxTudYz90qIaGBsDCH46aLx/fwzpkdfta0j7AIZSoXXXuGkhn1V85TqP2qdGZiPLM3zZbWlO9iLu6juO730GDEn57kuKcD01gjKybhHSpKXmHdgXKefK3KyZf21wL26UD1ebJqBNhgKMAIsGH4sWBFCpiMUzLSwbUEG8f00ji214nbCv5CAuILkHo6E4ltasjak1CMVMQpbHFJQy+zRxXlEKWACyB5ZtzQcfshhMOAI8J+MhY0tSX58aaRHOmNhcRX/Y47ffP6HB7EhN3W+ILsaLZ7Tb2BDcK+jgSP7qzipUNlBBOoIx6GZ7CkiZceNxnQBkMBRoANww+1K4FZhNfCFYiJctHoPmaOzPiCIyELLuyODkTZ2w7E2LEOA1etCJw/OsP8sb1BfNPXGpmNyJkR4HVPHAbuC1XC8OnMxHi8qYL7X6oO5gWHXM+BSzqwiIPnYkEOHyOuCLf1x3hoRzW/2lHtXhZPsV0RVnqAVYg0n6YrYjAMK4wAG4YfqmlUJwUTWx3BqE7aTKrOUpW0A0Hxp8sEolI6o9c5j6cjnoXsCdfYyhyTa7LOtCSnEbjJXxMQPYOLzct3gWa/wd7AQGHvsST/tqmGJ3ZV0pURnAQrb9ChEa0tfT0IuZwDgVeBY/0WD22v5nsbRtLWG6r9HFqXGGEt6DNsXGXWATYYSmAE2DAMkSRIjS8QrlVaV56jrjzvT7cBT1DFFR0IJxWpbzm6CVq+tSe+8HozfFJxZUyFs9hA4GYVEKo5kwVtVHegfA8NVZnyDVFlc0uK/7WmjpU7qmjvj5WweEOGcElBjlrJNsLhnjj3vzyCbz0/ilfby8IH418woRW4H6HpNF4Ng2FYYQTYMPwQtRBN+SaZ+5RO2KQTdiCiXlEmP+GKwEgMCU1xMpL7GffZ0+myuFIWt0MHAUgK5MwJ8OZVOYR/Q1hT/KZgq7CxOcU/PlPHz7bU8Gp7EltLXAsJJZ4JvoXsngYEsja8fLiMf11fyzf+WMcOb9pR8ff2AY+BPMnGx7uGoNcGwzmBKUVpGIaIjVdXOBQDtlXIu9vhhCNvfmsQBw0StHATjDy1CeYFS/TZO29Y9B1Lr4szXeNYaEb5GjABYWbwhucFEF5sSfGPfxjFnw6WsXxmFxeP72NsZc6ZlRWut+lXsBRvD3mFvccSPLe3nEe2V7FyZxU9WYvQwcH3qdjAC8B/YGXPtjWUDYazCiPAhuGHSg60vWC6C91ZcROOcIU1mHrjlTp2nj2xDQV7w9NuCLKnw3OCOzMxujNhp5GCyn7gzFp5G1flWLDsWeCbqNwDTPbdxyFe70jwk401PLc3zRXn9bCwoY8Zdf1MHJGjLp2jIulYvXlVujMWh7ri7GlPsONwkhdeL+cPe9LsaS+5UIW3A0S3oHwHtV5gw5Om8pXBcByMABuGIz2Ak1nrzn1F4VBvnJbuBLZCzAL8bCoN3NL++rQUWMgScUt7n/U2uzIWB7vibjKTd5wAtIH2DWlvB8Om1T0sXP5LlDToZ1GZFB2gOAOMrC28dDDJy4eSjKnMM602w6QRWeoq8lQkbBIxJZsXujIWrd0x9hxNsvNwkqO9VlRwC41fZ2WmbcC3gSfYvLIHg8FwXIwAG4YfMbsLm1d8P7ArBF0Zi13tSY70xxiTzvlTiUIL/RSJbzgW6r3lCXHYat7bkWBHWzJYnE/98ywCeSfzV/yczStbh7rrx2XjqnYuWvHviOaATwIX+u+FBVMEW6GlM05LZ5w/+scolgV22OyPLEQYOknE86w5YDPwbUQeY/MqU3TDYBgEsTc+xGA4y5g4OU/eqgZZCuJOAXKU0rJg7ph+zqvJRObxKoVlFMGbkhSNBYe02ZuaJMLTr1Xwsy0jaO+LUbCg7mhgNugo6mfsZuzsdg7uKCqGfNo4uLOXcdN3AK8jjASZAMQi8etQwY5CYdZIJlroM1K4H+9cXcCTwDdRHmfzaiO+BsMgMQJsGH68/qpSP6MMmAPMCgRRaM/EmFidZe6YflLxYMqRP/8X8ROtIgsTuNtelSen2IQjyvs64vxsywie3lMRZBBHqQHOB5mO2PsYO/0AB5vOXPyzpamPcdNeBdkGdILUozIyaHeoDyU0dZDYwKvAjxG+g51/ji1PGLezwXACGAE2DE/GTesDakCWIMHfcda2aOuLM6M2w9SaDDEL/FV/wLV0JRBfgqQsR1t9MxkR6MsLv95ZxffXj6S9z43YlEj+RSSFMA2Yh9DL2OnbOdiUH9qLcBxadmUZP60ZlS0g2xHtBhkFjEA8F3rIUC9KqAp3sqDDTrGNV4C/A37B5tU7Obj7zPXVYBimmBiwYXhi5XrIx9eCrge5HPBF5OUjZfzgxZGMq8px0dg+LM/KJTz/152i41m7UGAVKjlb+OO+cr6/fiSvdySC7y6R/OtqVBKRS1Gtw5IJLLzmW2z8/ZlL0NrwuA20sHD5Y6hsBO4HvRLkaoQLQapLLB3o4GuuRncGwfI24AU2r2oZyi68aS5cUksiMR9lOjARqANNgtigfSgHgb0g24jFdrDx16Zql+G0cfIOKIPhTLNgaTUqfw58GaEybLFVJJR3TOnib992iHmuCKuoa+G6h5VIwPI2sgrP7U3z5adG8+y+cjL5cAy0OAXY2R1aiABaQX9OT/IeXnnkzGdJAzQuj2NTA1oPTABmg8wCFqFciJDyjy0ZJw71W3U96EfZ/PiW09mFQTHvHUnEuhq4CXQ+InVAJUoaIYljeNjuo8+tWd2O0Ay8APooMbay4fGz43cznLMYF7Rh+NKyq59x0zsQxoNcEDbWsrbFa8cSvHSkjJHleSaMyJKME4oJe4/itXI7sxYPbaviy0+NZuOBFJm8W1A6bAwWumzDKu48VaAyh4Q9jfHn/54DO/qH6CoMngNNNi1NPbQ0tTJx6h5s2QryLHAMoREnlu0QKUDiCW+kz4dBnqalac/paPqgaLwpydgpN4F8FeTDwBWITEe1DpFqRMtBPAFOAEkgjTACdCwik1EuQrge5QLqpx9m/PRWDuwy7nXDkGAE2DC8GTf9KNABMhMYHy5AkbOhuTPJmr1pXm1PUpFQxlXliLt6ChAcr/TkLFY3VfEPT4/mxxtr2H00Sc72Cm+El9krsITDM3WInLsMYTpqz2LizN/TvLN3CK/EidG8y6alqZ+Wpi7qZ1QAKxDqogcVdijUX+QYyBpaml45XU0+LguWzcG2vwZ8ClgAjEbEqRoSnl9WyokRWPsWQjnIaJDzgSUoVdTP2EFLkympaTjlGBe0YfizaEUKW29D+SKESzF6KOVxpbosz7TaLPPG9nP+6D5q03nyeWjri7HlYDmbD6R4vTPOsT6LjFdR683i3Nx7QFcSt/+bu4Tg2cX8ZXOA/0Rk3hsf7IvwbuBeNq/66RC37g34ksVFa29F+DzOvOfUcQ8vLbwFx6iXGGCDdiGyBvQLxPJbTXUvw6nECLDh3GDhO1Ko9W6UexCZPdBhligJS0nE1EnOwik8kc0LmbxXFTk0XzYcMx4shTFTBUR7gNVY+nE2PN52gmccWhasmAT6K2DhoI53BGov8PdsWvWjIW3b8Zi+LE4FnwY+gzCZwS4u49cPL5gXXbjfP54MottQuQuVF9iy6szW/jacM5jVkAznBhuf6AN+DvJZlGdRbN+D6sduFVuF/rxFVyZGR7/z6MrE6M9bbhGKEE5c2F34oUS2cInzO5/zTxB6kjTIMjT2bRpvrH5znT3FiNXHoBaUiFwDizeyNoeSObfHqZS/QLgbYTKqzr2s6GcK7QhnfEdi3G8wwhKSIPOAHxKz59O41Nw3DacEMw3JcO6waXWO+cufQGQb6GeAO4A6vIFmRCgLg7ZFZRYzwBaEr6PaAXwR9HJUgpuvRKblFIdMi5A0cDNq93HpTX/J2kfPjsIVsXgfedsecEpStPSmRxw9QwK8YLkFXe8H7gKZFHUle14HpwhLTKC2PMuV43u5dFw3s0dmSMVsEpbS3Bln65EUaw+kWd9aTnfWwg6dImIZi1iIzkb5MRq7BTArPRneNMYFbTh3WbhiEaqfRFmGaB1IHNQCiVowzs065yxqL30I24DvAv/FplVO8s2CpTNBPg/ybqAy+tkS/4wKXZrRmUvtoD8gbn+RF86CqS6X3ZSmP/8bVC8PCU7UYgwLGwDSAvJNNq/8p9Pa1otWWFh6NfAV4NKgeVFLNx6DaTUZ/nLBEd57fjuVcRtRQd3jnG1AIW/DzvYkP90+kgd3VbOvM0HO925IaHzmK/MjqHyEF1efXaEEw7DDZEEbzl0O7GympelR6qc9iMhWoNuNydoIvUA3SifQjPA08B9o7IvMqPg6v334RVqaMv65WnYdYfzMZ1F6gRlAlV9gOoxfxzIsvkUWWgqYii15GmZu5MDOMxtTrJ1cgcidiEwAQtOpJDxBmsh7SAewhpam509nU6mfPg64G2Epqlbxus1KdZnNB+a087Ob9nP5+F7KYuCpqFvx251UJSCKJUJdKsc1E7q5YlwP7RmLvZ1JMnao/+L/D5BZKHtomLaZll0mKctw0hgL2PDWY9bNaSq0GstO0hk7zCuPDN4VfMnyJBneD9wNzAbikbktxdau/1bkGIcdCF9G9JesX5XhdLN4uUWGJGpNwNJfIKEkrFKVKKMu6r3Al9m06genq7nMXxYHPobIF3AKiRQxriLLP17dwp/NOkbSckIEqs5vorbbfgVUnAiCt8iT95ZCa0+M/715NP+xfQRH+2PFuQEOrcTsi9nwxN5T3k/DWwZjARveehx5JcuBHV007zzGkVeyJ/TZ15vyjFqwhVj2MMIUhNEgMb9OhVdjucgy9h4hi0pkFNAA7GDCzP007zw91tSCFRYNM0aiMh3kGoTbgUsRKiLtLdyO9uko8Btamk5fJaz66TOBjwOXRCxSN1u9vjLHP17bwjtndoSsXgm64g6OwrXBnafoiKkiYbOgro/OrMWO9hR9kSpowWHYkuVg05OnvqOGtwpGgA2GE+XQNqVl50uMm9EMTAKpB+JFmbWF8eFQxa2QqtUDtcCLNO88NORtb7yhEpgLfAqRryDyIUQWQ0h8Cyndj8OI/IYDO18a6iYDzqBBuAHkToTqSFENEdJJm7+9vJX3zDlGRUIjeqmuwPpjJHdbCZcmDVzT4IjwzJoMu44l2d2RJK+lfk9m0DDt3ziw6+xIpjMMO0w6vcFwsmxctRKse4E1QJ9rXpWOoUZiwN6zgpNNfC22fJKFN9YPaXsX3FiHcisi30Hkr4FJePcAf3AwoO8c/zgHC0jSeNPpuYeo1qFcjLiuZ4kmiC2Z3MU7Z3VSmbTdMH8gwsE60N4LZ9vb58kxeEntzrrI51Vn+cj57cwYkUEKvRqOO34MtnXzEPfccA5jLGCD4c1wYOdr1M/cgzDVTWJy/k2Fljv08Swtb+qSX2JZyoCxwFHqZ71My45THw9eeEMDwkeAv0H0Aj8TvFQWd+R1wQDCywZWYkAW1Z3UX3CYlu0DzWE6NYybsQDhfcB5zjX0spOVmlSe//n2Q8wf20vMLzMatnKD15G6Ku7vEDigCyxjYGJlhm1tKbYfTZG1S16nGC1N/zl0HTecyxgBNhjeLC079zJuxgGEGYjUI8SiSyxRkNAUFjU/GFmDMBoRi/Eza2iYOZLxM2HCzF5e3/HmYsOLbqgDPoTwFwiTikYGIogotWmb+uocDSNy1FbkqUgqfXkhHxEeP7u7DGQaUI/kdzB+9iEO7Bg6ER434wrgvUBV0G7n6dopPbx/7jFGV+R9R7PvVfbHF4UeCAkGQX79MymwiAVLlGRM+eOBNG39obIJwW9bS8P073Gg6cwvtmEYdphCHAbDqWDTyidZeEMK+CLIQsT7t1VgCZdKqA1u5ouB+ageRqQJZSOqz7NoxXqEvaxbeeKW8aKb0qArED6OalHmcDIO00f3M6c+w4Xj+phUk6MmnSeTE472xNh6oIztrUm2vF7Goa5Y4aCiElgB9KD214CmE27fYFi4IolqAzAm9N3+YOaaKV2MqcgFTmRvYBPUdHYPdSzbwnosRfv8L3DOf8nYXiZU5tjdkcS2JfTdgGolOeYAa4ek74ZzGiPABsOpYuOvH6NxRRL4CiozkQFyLCS8oeGbOYgkEWkAGkCvQmlB5EmUX9F44+/Y8Fj7oNtzwe0W2nshwodQnV5Y+3hMZZZrZ/Rw60WdvH16L6MqcqHxgdMoOw/bW5M8/KcqHn2pknV7U9iePe6cpxpYAfoqC1b8C5tWDr59g8W2q4FxiMTDbUMgFbeZNSpDZdJGvEIZGooBh8t5a5CC5RX2KhbjaNRbFKqSNjNq+ll3sJxu74NB/MBCmI0RYMNJYFzQBsOppKH6FajKIVyCUlEcBw7FgJ0d+FZbUQKUgEglyDyQixBijJuxi/rpPbQ0vbG7d+LUUQjvQ3h/IF7Od0+syfKhxcf4myVtXDa1j4qkU5DCcUc7iUgAlgVjKvMsPq+XKaOyHOmOs/tI0p3547e3ErQakZ0c2HnqreBx08cgLAVZ4HbA178J1Vned2EHk0ZkCbnzCRfcCPpdtOFnRoeFt5STYsfRMta1ltOTc8dUwTwmRWQDLU1/eFN9NLwlMVnQBsOpZMMGm3js34EfIDhlJqOTTl1cy3egUpbe8UG8eDYin0PkLuJW7aDaYslMhFsoWDShriLHnYs7uOuqdqbW5bAiWcK4aUviJyghUJaAa2b0cM/1h7lyWolZN8oc4Hoabxhc204IieNUD3O/K8hwHpnKk4x7cWk8U9d5GR7jFIYBRN2HYxiraFSNJXq+EWU2cWuAMY/oiDffR8NbESPABsOp5vlHehDrn4FfRt+IJl+VJZSZY7PcNLeLD196jI9ceox3ze9k/oR+Kso0ZJL56lGHyKcRuYNLbjz+QgiL3pkG5iEyJ2xdWwJLZvXwgYuPMb4mVzD7SAPN95saKJUBlhkAACAASURBVFciBgsn9vPpK9qZUJOLtk0kDSxyhfjU4nyFXfAap8XevnBs2vM5hwYR7stgTYkCKzg0Pcm7DuHzxa0B6mE5pbbMfdRwUpgYsMEwFKx/tJXGG76GcCNQGxaImAVT6zLcOq+TS6f0MWVUlhHleUSgu99iX3uCDftSPPKnSja/nqI/6ymkAlIL/CUqL7D4lrW88HDpDGln8YlG0JBQC5NHZbhpbhfTR2eLBcWLgYbKWKMaiJZCeUK5fGoPt8zt5DvP1BaWp5wNOgd45qSvW0nsPpAu/2VoClJfTsgX+o7DrwvLcIeS4pzkqyBu7OOLdvBeZ9YipyUk2NlnCnEYTgojwAbDUOEkKCVDr0lYysKJfdx9bRtvn9HD6MocEhIFgDnjMlw2pZdLJvfyL2tG8pvtlXT3h2PEMhX4LHHuBEqvpiRaB8yLCgssOq+Pxkl9JGJ+5lfoI4HSCuLHeX2vrrsxutLmutk9/GzDCNp7Y6FsY60DprBgRSWbVnZxytBAgAtqard0Jejoj2EDltsfv0iW3yxPiSMeavyELKCUeSsavLenI0lfzsvcioQNbODAqeur4a2EcZ0YDEPClyyEzwKVnkvUEmXGmAz3rjjMLfO6GFOVc6wtVxW8/xCoKre5ekYPX1h6hMun9pJMFMUfl5GThUVfG1AJTA37k+MxmD02w6TanO9y9WbAgmvMhROYwmol6h8bjynn1eY4v96dFeWZzSIWQgMWdW/iwhVjaQdwCCQXHQ0ox/os9rQn6M15LuRw7edQNnTEyA1VLCuIG3vvi389lP48NLUn6c2Vul2qDfbQTL8ynPMYATYYhoLGDReCXBdWg5q0zUcva+famd0k4jYRs8sVg7DoWZayYGIfd111lIkjc0Gw1nlUgr7rOC1IAzXuV4MIlWU2Y6rylIfEPIh9ihvvDYuS8360bojz2aoym/NGeutYRMzHGqB68BdqEKz/TQbYD9oSukiAoCqs3Z+mrdeZ0KEEAwm//eFWhuLAkeFHWIzD5SoRXjxSzmvhNYKj1nIOdOsp7a/hLYMRYINhKBBdgVLj3a0tC6aMyvL+izuiWbsoQV1jpwZxEO914sVLZnVzyeReUoVWsLCi5HcvviUOkkYkskBEukypKHPny0pIqMKC5FuLgVs8XFcZHKFOxpUR5W74WSPvJ0GGIrS1F9jtf1/QHH6zq4JX25PkCxPKS/TL3y0aElollPtNga3ME69VcqAnHuyOuvW3otJ6KjpoeOthBNhgGApErkGwPIs1FVeumNbD2Kp8yNokYnVG124Ijqkss7lyeo8jeFEreCqX/1lN0Xcn0jaW5AraQzYvZPLOZ4MayRo5xt2ITOFxrEgJkouBvAq92ZBpHJiVGSD63aeGJmBb8H3BGwc64zy8vcq3gsNZ3IFbOrjO6h4Q1lPx33PeV1FEYPPhFL/bV0F7fyz844SaJb9myxOnZxlJwzmHEWCDYSiQaCWsZALmNmRcEQvivepaXx5epDUcD0ZgbkMflWX5wPpTBdUkmi9eQemP/2njZOZG5iF39sc41hfDtqOuZ+cYgmd/OyTR4rl3HWHqzQqHuuLFn1ftQvXUZwWLHgZZh+OKjriBFeFnL47g6T3p0Nq94eGF42Uo6qrrCXCuReCO9pZn6M4K/76thj8dTmGXyoCGPmy975T31fCWwQiwwXCqmXd9CtXK8C5LlJp0Hk9iPQvXt7z84hHiC294Dm51SonHIiayu21FvsdHtQvYT0ho+3LCrsNJWjoLPMQRN7T7cc81HrHWnYMVONIdY0tzGaE3vJMdxpa2wV2oE2Dj4znQtaDrixoLHOmN8ZU1Y3iptcyZluQZvP4gI3Dr+5Zu5Azh5C0haws/eqmWR3dX05ktcZt0BkKPkXfd4gbDSWAE2GA41Ywpz0SrWThWWl9OfHdn2NINhMI9POIidbZ7s+IsCi8Fj7x0lGyDWO2Itd1vgPu8aX+Kl1vLSmiYhpKX1Bfb4HzupB2Bjn6L9ftSHOgoWh2oC+FVkFNfD9ppww7gt0BLqXjstkNJPvloA1sOpty5weFOeoMJvzt4LunCR9aGn7xUw3dfHMnr3XFnZ2S+s4JIBuXrvPS4cT8bThojwAbDqebJR2xEWgMXr5DJW7zcknIsXHeerW/lhtN2CRfACgRid1uSvqy72K0vwGSwrP0l2yBWK7AuElgGNr1ezu92VNDWE4tY3oUWYtQlHZR2VGDPkSQ/fr6m2C0rshuRJjY/NjSitHF1DrH/C/RJxK2MJUHFMNuGPx0s4wMPjOfRHVXkvbdEiy3e6GXxae2J87W1Y/jq86N5tT0ZLDwhIRF2Soj+ADXZz4Y3hxFgg2FI0G0grkg4FuzTTWn68754OkeBu+1avRIIr4Yk43c7K2nrixdYrrKFtQ+Wjrc+92Abzgo9zV4bvESsn66r4TfbK8nlJSTyQe2n4DkUm3arQx3sivPdZ2rYeqCsRJd1K7ZuGfQlOhmEZuB+0K1upZBg7CBgq9DUluSOB8fz0UfGs+dYGY7PIVgjWMLuBpfunPDr3ZV8aOV4/mndKJq74s4Ao5RKw3bU+hpbHi9dBMVgGCSmEpbhzbNgmYUzmIujUoOt04ExbrH7HsclKXtA2wAbEZtNq85t153wG+BmkCQ4wrDzcIoHN1fzvsZjIdHVSKwXCLmpne11r5Xz7KsV9GRjUd0Q/cXx2yDbER4D+US4PuPeo0m++sRoqlI2183qJhHTQJwA1P12LwnLtXTbemL8n2dG8v21I33tC7lmmxF5mg2P7T2JqzV4epNJkvl5SMHaxqGpW6pCfxZ+tqWaX75UzdXndfPuC45x0dheptVkKLOcZndlYmw7VMaavWl+vauKzS0pcv5fZUjVo9/RBtYnQVqGtJ+GtwQlh3cGw6C4aFkcSCPMB70duA5lJiJWtKAwINKH6m6ENSD3g70ZiXWx8SQWmR8OXH7zGGzrZUJ1oEWU+RP6+PmH9zOzLoN4K9u5H9GQGKv7v0NdMe56YAKPbq2mP1qJqQO4gGfuL+2C9ttx2zsQ/TYw0z+py3kjM/yPpa3cPLeTkek8cXHaGKDYttCfE/YdjfPl1aP56QuhhX+CjGwb4T6w72HdyqET4ItXJMnrh1G+gDLJHwB4f2P+fOTgijoErxOWkk4oORu6M1bgV0dD5wjdFoMymyB0AHchPMAmY/0a3jxmPWDDiXPBEovxM0eCLAG+h/BFlMU4q/WIfyOMzpuMIzIaZBHwPpBrETKMm3GYhmk9HNh15i3iRddYTJgTY/xMi3FToHlXUf3HQbPvlW4mnD8OkUv9fWJxpDvOSwfKWDCxj5qUTTwGvhXsCwlkbaG5I8G9q+t5+E8jXOs3koD1Q4SH2Lstf9x2TLrgIJADuQSR8nBc+lhfjJXbqnjx9TJiMae6VU6F/qxFT1bo6rfYeaiMHz47krseGMdzr6YLTi7geDQ2g3ybdb9ed9LX641YsCJOXm9A+RuEWZGpUqGs58C3r34/w9u2Qn/eImuH1vUt/lsNGb+CU25SDiHcjcUDbHq8d8j6aXhLYSxgw4kxf1kK256NJfeC3AxqFf0Z+VYDwU1MCtx5jtWRA1Zj8c9gr2XjE6ewgP8gWXRDCqQa1TSilYg0oORAu7CkHbW6QLqIxXpY+6sTKzBx2a31oOsQCdylIliizKnv5zNXH2bJzC6qUjZJ1w2ctYWejMXG/Wn+/zV1PLO7IrB8o17R/w3cw5pfvrEH4W23jUH4FPAZoDZq8QXbo9JZpozKUl+VoycrtByLs70liV2YBexvq42yF5FvEiv7Pzx3/1AU4ICFy+MolwJ/D3pt1MItYf1q+G8tbMG6F9BfrSHoO6WGWs6+PoQmlHtRazVbVpqVjwynDCPAhsFz0dJqhGUgXwedBFhFN0A/NkiBVVFwU4xaKi2ofhnVB0AO8+LqobeGF96QBp2AJVegcgNwKUJ9ZEAh0gZsBvk9Ir9DdQcW7Tz/yOCF5vJb7wC+jYhbsSq4+SdiMGN0P5dP6WbSyCyJuHKgI8ELeyvY2pyiK3NcB1UTIhfz9H2Dm/Jz1bsaULkHlU+AOis0FbpePUpta4FCqeaA/ah+D/L/wrpTufpRiIuWx7GYB3we9DbUXfSoKEar0b85/60CwfX6HDkH0b9b53UOoQ14CuGbxK2NrFs5NAMMw1sWI8CGwbFgaQ02dwBfRGSMs7PAqkWJCVQmbcpiTrzNRujPC705y1mxxrtJFsbaoAvVryPyIyxpYcPKoRPhRTdOwtbrQD/vVKwqvGkTbZtjze8HHkD4BcIWnn9kcJbQZe+KA/di8SlE3FWCwhaYhJ5K/HMsnYXrvXk9T//nk4Nqx1XvSqPWXwP3AJUDWcFFglssvAB9KNtBf0g2+yM2rRoaq3DhDUls+0LgboR3A/Hji25hPPg429FFj4NzqmaAw8AO4BeIPMCmVYeHpH+GtzwmC9rwxsxbWonyXoR7wBNf8G5agjKizGZSVYaJVVnm1PUzNp1jRMomYwuHeuPsbk+y42gZ+zvjtHbHydhWgX5rJcIXnU37X4GBqyk1Lo2DlSSvSYS4YxX5MVQvI9tG7By25BxrJpYjFrchOxXVexDeC5IseZMuxGnnBOCvEBYD3+HSW1az9uE3rvj03IM5Fr33a6SyNsgdCJMJew4KhbdUGwYW4fcAgxNg4vMQloBWFjsj3B2FoYPiTOeM461gPfA9upO/46UT8AacCAuWJ1G9EOFucMW30MINT0ECigZNDjlEdgMpoBIkjZOP4H0wh0oPaIdr8TYBv0V0Ndbh/WzYcOZzEwznLMYCNhyfxiUWufjNIF9HmAlExKosZjOvro+rJ/Rwy/QO5o7uIxVX3ClIeNWHcgr7uxL89rVKVu6qYt2Bclp73LmWUUO6HfQzqLUaNI5QibO2bdp5qHcjrUa1EqEKJRUS4CRKEiED2gPSCXSB9CD0AXcC1wJJ/xsLBW4gUQz270b4BnAfax8enAv4yttTwK0gHwfmuNawVfr73+B1wF5i8Vk8+e/Hz8i95n2V2PopVL+Iv1SgBpavr6+F+9SzCHcDbajuBX4LsUdY++DJrQA0fblFdawO0TEEv6sNmgH6QFtBO1CZifJZRN6NanzAAdJAlm7AGuCbwBhgCqoNiKTcPzqnZrbSDLoLSzcT0ybWPWHivIbTghFgw/FZsHQOyrdRrkIkHnbhVSSUG6d28BcXtbGovhfL8kQXX3z9IvjutiLs7Ujwi5dr+M+XRrCjrYxsXgr+EnU3KvcBlQgNQL37cG/aakUTaQoodDEe143rvF2bthk3IkdVyhk89GYsDnXHae2Mk7ULzuFYT9tQ+QpYj/D8Q4OLf171XguYiuq7Ed4GTHLd+TUgcaSEIL9B27HkYp786frjHnP1+xej9leA64CBEqqKxdd5fy3K10Gb6OrewZ+eOLlpY5fcnCRvT0d1JsjFoAuBBsB1y2sXSivO2rqvAo3AbRCa0uZbum5c14vl+pZxYUiEHQh3snHVCyfVZoNhiDECbBiYhTeksfNfBD6Bam0gBkpF3OaD57fz+YsPMa4iXyC8GhJfKXjPefTkLB7eUc23XhjFn1pT5OzQn6Ivnt7/imPNvssUQiI7QKJXcZwPb/rJiHKbK6b2cul5vcxt6Kd+RB5LlKO9MV5pTfLcnjQv7E3z6pFEqcpIa0A+Tz7+AuvuH7yr8srbLbAaEBYiMhtkIsKFiCwG0ickwMK9PPnT/zng+1d/oAbRT6D6BaD6BMXXBv0Af3zoza3403hzA2JfBbwL9GqUWjzrP1LNKhxvLvjNC9sdnr9b0gLWFkQ+x8ZVP31TbTcYhhATAzYMjJ2fD1zriC/+DS9hwXtmHOPeS1qpSdnurdJfzyfIY3I/pP6Wtx8qEsptc46RsYV/fLaOprake48tJaYSFYaIsIYovCEXUjA/uaE6x0cvO8adFx9jel3G1QGnVjMiXD+7m9sWdPHo1kp+8kIN6/aWk82HvteZ43sL8fxuYPAu2T/cbwP73ccjAFxzx82Ifh2YfUICDMtZ+PF/YOP3iwcAb/tzC+m/EJFb8F3P4WsRiqeWHr9sR3TloPtVisab5yB6J3AHSgMiVvAd4YFWCQZyO4f+FgegHfgOSeuXJ91ug+E0YGpBG0oz94Y4ynJgenROL1xa38PdCw8zosz2jVpwV5rxY7/hh7ripv6xCiQteNf5Hdw2p4OR5fmCm22JuGwkFguRG3Bhtm4pkQ5t11bY3H1NG397/RGm1WX99zQ0X1kE6quz3HHxMT5//REWndeHWBI+fxKRW7GYPuB1HCyW7EZke6jQxmAfc6jrL14TGCCVrcOSpYgsHPDz4evieSt8i1S+zx8eKr3a0mBYfPM8RD8HfAqY4LvYUfzfrvD38QcFIas2clzIYpaC/c7ArQf0R4j9r6z99blZZc1wzmAsYENpYvYEYCFKTUhlqUzafHreESZVZf17ddgz69m6JRzBwQ3eu78DVck8d8xr59l9af64LxZyRRfF84JYnz/nWIJDwnFfCvYVuigF7lh0jI9f3k5Z3F2GD2+QIBQu8lOesFkys4sDHXEOdCTY0+blbwnAVESu48rb9iPSzJqTLEZhsReVHYjkCP+7fGMLOAUsBv4rsnfJB5OILgK51T2mmEiZRfcXUcFdYWg32A+dVF8AFt8yCfSTCO/EiXGHfh8hJsrkuiyj0zlSCZvO/hgHjsU50BFzE5xDyWFF3o/QdnT+eQ64D9H/jxhDsySiwXAKMQJsKI3qfMApthGKuV1W38Pl43qIW+DdCENLmYdks/g93D2eteKcUphem+X6aV1sbS3jSI+34k8JIRaigloovsd1PQc37ok1OT5x2VHSSQ05yMM3dufk4drMFUmbd8zu4plXK9h7NOnGgwEkjvIhYAbwHG+//Vl6yrax7qcnZn395j86uP6DryDSipOcNBjxBWdK05UUCnBMJqDyHtDZRZ8YMKMY/AQnS7+PZTWfUB88Ft6UAr0NuBmoCb+ViCmXTe7lmhk9zKnvZ1Q6T1ncprvfovlYnM2vl/HbHRVsa0mikXaGBlF+0hXBe474PgB8E6WZdU+Y6UOGsx4jwIaBmAnUB2auczO8cXIn1UnbdyXjxn4lIl6ebAamSRhvpR/Pgygo75jWzU9erOFIbzx6krC5HHY5Fp62UITD4ux9wN1eMrObSbXZgjYXxCM9a1iDOs0TR2ZpnNDL6perOOwt1O60aSrIVOBaVLZSnl3P29/zWyTxDE+dgBBb0gSym4EEODIw8dttoXI5X/qSxZe+5IjO0g9XAtcirEBLhJlKeQuic4C3gjzA0788OWs+ziLgFr8fLiPKbe5cfIzbLurg4knudDXU0Xz3ccOcGFdO7eWn66tZua3CibkX/tiR3xTcqlwPIfINsHawaQiLuBgMpxAjwIZiLr3doq9zImhN2GJNx20ax/RSFvPivIHMemLkTTkS16j03dMSvY1GZERgVl0/E6pz7G5Lkg/7gEt+oOC176IssIpKZhfBJef1kogF7QIQCeTY2Q4E2xtgxCxhyqgM40bkONydCAmibw034IjO5SDXofm1vP19vyKTe2ZQdZLFasIpBHGF25BQXweyhsVCmMzG5jqgleUfsVBmAx/Fn+JzHIpd9Dbo90COv8rSQDTemoLc9Qjz8AqkAKmYzaeuaOdTbzvKxJosMXdJwPB0IgsYXZnjxgu6aKjOkowpD75Y6XgbSvcdnDnEjwDfBHsrmx435SINwwYjwIZiMp2VQA0q8eDmr4wpz1GbyiPhhRU8IS5yGzuvC43UgXQknVAmVGdJxJR8VqKn8lzP/klCJ1Q3ocffFoosx4j1BPXVOSyJvh0IbpDPHbwfCHl1uU1lmR30V0In8fdJJbAYYR4il5NKrOW6Ox8kVf4sj/3fgS1isVpB9+JUnEoGTZcBr5tLmrw9B2jFkjHAR1EWDpwkfBxU1yOsxOLkEphi9lSQhajWhC3tG+d28eFLjzFxZJZYqC++k0ODnzoZUxon9vHnl7Sz63CcjfvLgw945wxivv+FU2hjM5seN0lXhmGFyYI2FKO2W3EqGhMdXZ4nYRXKqropV56lqb6LuXiaSNQ9rKH9CoypyJHwinkUfv546j1QnLDweNfF6iV6haPUEmqbFAheeGJV3nYeBYJL6MPBd4mkEFmEyJ8D36S/7xtc/8GFpTsBrPphDpF9WHIYEbAExHKfvYcFVujh7I9jWfO5+WNpLGsZYt2GWE6ZzeCY0g8rvCyfZBD5Lmo189tfnJwbV3QO4mbOu4yqzHPnxceYMsqxfP0BDxRdey+8m4jB4kl9/NncLuJWiZGEU+nsPtCvI9ZGNq824msYdhgL2FCMxizQ6HxNAUtKmVTFohhJXi2IBEcMxgIhlvD3hcUskkRVYD5FLOLjNsv/kp2HkuRUSKChsGdwUvV958XnP9wd56gfpy4Q3HDHopZ6GliIM6VrMUs//DBi/ZzVPypevF5kPyItCA1F1v4A/cEpv7kE4nsQ+27QutB4iMg2FLudLQtsG5DHgN/x1M9OfrF5YRJKMC1KhMWTejm/vp9kXH2Xsye6ngcavEsZvD+i3KZxYh9TRmXYeSgZGlRJnyu+/4zoNjYa8TUMT4wFbCjGymVwavMGKBztj5ELzQ4J3zIjrz0D0YsFh44pkvCQrhzt9aYhhazLyLEFglRKkwpFswjldzsryOQ8K1hDXt7Qdxe0G6A/K7zcmmL/sUTojSKrt6CNEUGuxpkydDfoD1nxkTu48YOVkeZZshdLmn2r1wpZsdYAD5E4llyFxTcQmRNYvWHr+TiWMIBltWDxPWLacpyLd3wab4qjjEYkUvRj3vh+RpTbxT9pwbYzRghS+iyB+uo8M+qyoeusAF3A7xHdysaTLI1pMJwFGAvYUExGOojRhWDjLxgALT1x+nLBmE0KLVIptlSLZoyUwLNCX+9IuHWXiZql/hxVehDZD7SCtuGsmNTurGZDDqEfJIcSB8oR0qDTQa5AqPUa9OyraTbsT3H19B6siLPcFWNvLqyIa4w7mdBbmst5bk+a3qzrRy20esMdKiVyzraFSB0iV4PMROPXcNPHv8Oj398IQCy2H9WWYIBRONAovJi+y74apTpy7cJWLwX7tOC3Q/8NkY088fMTF7TG2+IkdTbYt6N6K7jJV278d2xljlQ8POUr1Ba/uW7gIrQflMqkzaiKfGC1OynT1YjE2fiESbgyDGuMABuK2fpEhouWtTqCR6UnBJ0Zi82HU0ypybgrHhGIbpFIRG63JS1KCJyRTUeT7OuIk7MjpwDRbSBfA2svSiuifUDOeaiNSg4R253HYoe+wV2WUGYC3wGp9c7bkxH+9rHR/PqT+6hz61gLrjsU8QcEEAwODnXF+NWfqnn21YpoR45v8Uafo/HWOJZMwlkWcT43ffL72NyHxDqQfAsiPUTqQg9g8Xs7I8VJAlevv8+Pi5dkPcqDyHGWgCzFZbdXIvYVoO8DvRxlDCLpwilOWQXb67fvRi70o7jd8F677c6rOIOy6NFxjPfOcA5gBNhQGmEnTn1jf/F2FeHJ/ZUsm9zpzuEMWbm+HePsCaTXE+KoazdsfynwzGtpjvTE8H2R4AgJrER4AGI5Xnz0xC2et920kX7dijIHIeV964Z95Xzop+P5+YdeZ0S57dq+6n59IA4KHO2N86O1tfxwbS3dGdf6LeV6Lpq3K9H3ve1IUpWkEZmPyFeI8XZEXwTrHYi7xCIg4tRwFCkuaxKPKZkcqAi2FliQUZ0biB6Q74Bs4/EfvnHi1RXvT0J+DmLfDFyPLbNRrWSgaltAS0eCvqwwIuX9pWhRP9SNx0vBOKErIxzu9uaMednP0gOcfJzaYDhLMAJsGIitQDMwNRy8e3hXNZ+ae4TGsr7IdJLi4F6QdiWFR4S1C+jICA9tq+ZwTzx6oApgr2LT6pO/2f7x0QyLbvwuwiJgjnN+IW/DE69Ucu13zuPrN7WyZJazBKw3jFCUnA0vtaT41lN1PLilhs5MbOCO+LtKuJ/f+GEhUotwK8LNiCRFxPJE1xIhBoyv7mfJ1MNcN/UwM0Z1M6ain4SltHYn2d9Rzu9frWX1rlFsaa1wcqpKWJtRFODfUX7H4z8ceA3ca+6wQOeg9jux8zc5SwqSQkkCVvBzS+AqDj2v21tOW0+MsVW5kuLrWbu+z8TXWqW5PcHWA2UhFzSgNJ+wtW4wnIUYATaUpiKzhe7EdpDFzo3WuQF2ZYVvbRrN95a8TlUy7x4cNbvCU0w0Imni7/cMXQF+vqWGLQfLHPdzJPbLflrHrXnzndEXQB4A/gKo9b4jl4dN+1Lc/INJXFDfz/ILupg5JkPcgteOJnhmdwXPvVZBe2/MKQ7iD0TCwltCUMOckBCTRCRpiRALPcZX9/Pxxr18YO5+RqUzxLx8KqdvjErnmFXXwzVT2vj8FbtZ81ot//TcZJ7ZO8Ip5+jHfXF9wT4bgZ+x+ofF2djXfbAB7KuwdQlqX4XqJFQd169gFa3HWxjUDbH21XI27U8xZVSWcjd0oeolv3nucm+oFvztHOiM89TuNC2d8dD1BmA3+iaSxQyGs4SSUSWDAYCLlt0GfBlhduHUlX94Wyt/teAIZXEblaDylfOsqOVYb0CoGpa4xzjnsoFn96f5zKpxbDlYRsQp7dyH72Xz6oHXuj0RLrs9Sb7v26i+H8TJPPba5AeoQ/8c/A6Ft30RthHJIWIB8eOKaql5uFbp1xIS3bgIyRjcNKuVv71yBzPruoLr6Y0gQsVJwv+QVZXWriT/un4i31p7Hh39btkp72ErqHaB3o3qfZBPkmMmNvNAG1G9CtXpqFrYdvA597f3i5/4yVzeuQm2/WOdfQsm9PKTO5q5YFy/01YNibUn2O75VCGTh0f+VMVfPjiW1q548D2IjfJV1PoGmx87+ZWaDIazgNiZboDhLGbs1L0IixCZhUjoE52G4gAAIABJREFUb0X4Q3MF54/sZ1pNlkQMvGQs8ROEHbFS8dyKboDPfS+rsLU1xRd+N4Z1zeVoeGUjxyJqgcQnaNnRdUr6sn9bnikzniIvU4HzQFLFFmtYcL3nIhHuQ3gYkb9D5BVExrlx3BiReVcF4usV1RhAgEWEuCUkLIuEZVGRhI8t3Ms9V+5g8sgetxnia5wgeDWqBfyFCzwjvTKZp3FcJ/WVGTa1jAjc535XpRWViSh/hcqX4f+x9/ZxVhVXvvd37XP60LZt2yIh2BJCCBJiCDbQAjHGh6ggoKAxksl7jMTcOJk8mTy53rmZPH4yTibJZHzmyc1kMrljRJPMTGYSEuMrKKhBYxSRNwkhiIiEEESCiG3bNIfTe90/9supXXvvc053n4YG9o/PofeuXbV2Ve2qWrXWqlol/w3hCrz9ymdSaXIeagLMWFZ0jV7s7Wxg98E8097UQ2tjL05k0lBeNKZAT0l4dPup/L/L3sALLzdEaYo8i/BDNty/KTV/GTIcJ8gYcIZ0vPR8kbbx3cAUkDegGm6VdV3PHtzUoEwc7jlZ8IyWGkq7GjBiCCU8Reg64vDYrlP564dH8sQfTsV1feYcqDKFIvC30PtL9j5fP8f6u54r0jTuPpqcQ4hzLjAMkXyQv8iiqjAsZMIlkH2I/Aj4Ox776ZPs3Pwobz3vF6i8iMhIhCZECiEjNpmwyXQtxhwyX3FoEKEpD4ve8SKfnf4Cb249RGAjDVW+Yip8PbYc1rOxvaixQRl/ZjeNeZen95we2UKGtyf5zcAbQPNVF2tFVjbbvNlmxkTr0s/btpeGsXZXI2PPPOLvC1bfJahwxIVDRxxeei3Pzza28KV73+A53zAnSSJF0P8E/osXt79eJccZMgx5ZAw4Q2VMfNMOevKjQM4FOdVkToqwavepbH1lGKNO7eWUBo/55h1PzRwyYqDoOhw8nGP7K8NYsvEMvv74CH77p1M8u3AgUXlM0AUeIcdNbHiw/oPsge0uf9y2mje9/TFUhyEyAuj1xfQyM/b+FhF5HeRPCGuAv0Nz/5vHf7IvpPfCb15j52+e4i3tSxFeRjgLkVNwnDIjTmTCgdrZIe8IecehwREacg7vetMrfG7G87zjjZ3GBMabzJT30QYScGAaUN9MLwT7lgEac720nXaYgz0N/Oal06IHXdgnIiWhUpxESdi8sRi1KLtfLfDT9afxu5eG8VqPw2s9Dvtfz/PMHxu56zen8c2HRnDrk60cPJQrv98rSwn4FfAvrF/+u+oZz5Bh6CNdzZQhQ4D2+cNR9xa8M15biEhbgAhNBZdLxrzOe8d0MXVUDy3DesnlPCntUMnhhVcLPLrrVB5+4VR2HCz4Uq9Pvyy0uaCbQT8JupENR+FM15lXTgZmocxAZAJQQMRB6AHZg8hmkAfR3Hqe+El1dfglH28jJ9fhyCKQcThOc8QblRNlwHnHIS8e420Qh+GnlLjx3dv4WPsuGht6w+VrgHFtqJ0paxmCVcRmfPx4y7e9gb9+5Bw27TsVDey6rmkTdsv3EXuxGw9LtQlbdmDbJhzAfFa29xM2hIBmaB7QErAV4Rs0d/+UVasyBxwZTghkDDhDbZh82ViEbyAyn8DjEkQHSv9vTpTTG3tpKbgUe4UDPTlb/emnpaxLFVxUt+DwRWDVMfHve8FCB5cmeilQoItf39P/PMy/bjyqX8Bx5iAyFsfJ27Zgx7D5Nvgq6Nlv/RN/deFWJo16FYDwaEST6UqZuQbcK7QNC55WQQ21NPCn1xv4+8fH8d01b+JwbwrjrcSIbYYMVZivESeAHWbGK0cqL+7yJPsiyhaE75Ab9mPW/CLb/5vhhEGmgs5QG156/iCjznka74zZ0XiuHsuLjoytOYpwqOSpnF8r5ij1YkgzBspB3QjrQb6EK6uO2ck2f3hW2f1skT3PHuIPz/ZWT1ABz204wPaNy5gw7QUchiNyGo7TbEq/OZ/5BurnU/Jwxdv2MueclxjmOzqRkNlqeeGVGtXuG4VF/WdBXFM9DJza0Mu+rmE8vcfbz6whE/Qj2PdY4VWR8H29pC7oKyC/B0qoNoG/mixQnUcShJM5F/Rl4FcI/z8Uf87aZYdrzEyGDMcFMgacoXa8tP1V3njOr3BwgeGgZyLkQvutMX6GMH0OB6cpaXjvovIisAKRmxHnSTYuO7Gc6z+3fhtvn7ECOIzImThyBuLkHd/umw8lYIezmotc8bYXaT/rldDmC2XVcgBzzhOqncuahJCniW9/F5+JdhXzbHqphd+/ekpZA2yqgO17qM6AU+3AlBD2ABtQfoHIrcDziAQa8gJCISohC4gWgRdRnkFYivCPrFv2OC/uGNiEKEOGIYiMAWfoG17a3sN7pvyal4vPIyqoU0A4DSQfZ7AY6ulgq4ng6TnlJZCngB/g6rd4Zvnv2PvciTnIPru2m3M7nkac3yDSjCNvyDlOc95SQY8f3s2cc15ibOvrIWMzD7zweGvZ7qsG8wrXsfnRA+ZtyphHenOs29PK7/Y3+/44NFkCTlIbpyIm+XYDz4M8hvIfqHwLt+Eu1ty5jT8++wSj3/4oqs+D7gVeROQPIL/3wtgMPA78DOFfIfdz1t2/z35BhgwnCjIbcIb+Y/olTRwuzEW4BNEJIGNAR/o2Ygdzby/aA7If2IOyA/RpkBW4bGPT8hNL6k3Dok87aH6U4Hy8wXEWNeRkcsFx8gXHoeA4vPtNB/jv7/kd085+mSRv2uG1oc5X39breZYSIwzKal585xzDuHnVOdyx8WyKrosbswFb17UsxvKIF0H3orod1S2oPkovj9OV28dvl6YvpJu2oJkcI3GlEbdUQuUgxab9FdNkyHACIXNFmaH/WPNwN3AnkxfeR644EdVzQcYCZ6M0IeTxbIBFvKMD/wCyDXQzrruPTUdhlfNQwtJbXWBPwwc+/885h10O8hUHmeD5dhQackpOQpE0lH2FgMGWJV9JsKlHfCn74nDo8hHIO0qD76Es3MKkpowchFHWXBgr3SP3UALZC7oN2ApsQJz1OLKVx36S7lfaxLp7u/DO9s2Q4aRExoAzDByb7ikCm/wfTFrokHObadC8t+fF7aG5WGTVqpOL4aag+NNvdzV/8C/XOiJbRZgQbA0+XMpxuJQz+KGvdPZXBGvEbyNWOIBEpOVgX7Bn2lUOlXIcKuUIDAEhEuzHKehG2O1pMNgOPANsRHQbjy3N3EJmyNBHZAw4Q/2x+R4XyAbkChChKHAgYIYCdB0u8NrhhjBCYMWNrni27MCYfLO8D1iMVcaBQPxqTwOdhxsw36nl/4x3hFzYBfaCbAfdDvIssANkByI7efTH2YlEGTIMABkDzpDhWEClS4Tdwa0Af+pu5MXXmii5Qs5R34Qed6wRqKTtsDJ8NbShPlZV/tjZyB87U4/t7cE7/3kPwh6UPXgmgz2o7gTZSeH0PSz/TqbFyJChTsgYcIYMxwCibqeI8xxQBAoArx1uYMcrLRw41Mgbmg9F1ML2liSTMRMw5EDUTXCOcqTX4bmXm/n9wSYzG53AIwibgBeB/eFP2A+n7GfFv2RepzJkGCRkDDhDhmOAzp98uzj8o1/YibADmBhYd5958Uy2/qmVN5za44do6A0rshLap6OGitkLCBixwYRV2fFKM2v3nEHXEX9dnIeNwHdxdA056WLpv2bSbYYMRxEZA86Q4RhBkF2CPK4BA1bY+Uozq3e9kYkjDjKy+RCBdFs+7QgkcYWyt3o5VE9LWRI+VMrx5K4zeWr38NBjpIKLyGMgG/nZv2T2+gwZjgESHPRmyJDhqEBlD6qPqup+V8FV5XCvwy93tPHkrlEcKvnzY8FQN0evIwglX/8v0OvChj1ncNfvzmZ/dwH1/+GtYn4SyWULqTJkOEbIPGFlyHCMcOg3T/aeet67egR5k4i80xHBEaH7SAP7Xj+V0ae/zlmnvY7jGAuuxFhwFay1su69ldPeCumt+0/nX58ezxN/GM5hVyi5SknVVfh3Re5k6T9l0m+GDMcIGQPOkOEY4tTzLngNRAXaReRMxz/zt7NnGC8cOJ0zTinSdlo3DY4b2nSjfqH9bUpSvgfFVeG3L53BP6+ewKoX3sBrRxx6VSmp0qusU+R7LvJbtjyV2X0zZDhGyFxRZug/Fi3K8/qZTbiH85SkKfa87MY4D9KIEzupwcHVJuy1CCJNgON7kCjhbZEB1MWhG815K3NdLXrO+9VFpAfNdfHQ9487t5YjPvLF4Q0if5535MYGx2kJfEQPywmjTz/Egok7Wfj2HbyhuQck2OsL5pGDGtqAvdXUK7e38e/PjOW3+07jtaJwRF2KrssRV/eVlK+5Krf3/vR/Hb9eqOZ8NI82NKPShOKQc/JAeY+V67YQmNiEAkgBAMVFpRvcsicwkRKO9ADxFd+90gNuKfRz7tEoO93O5XvIOT288nKRJ5ced20vw7FFxoBPBlz0qUaG6Sw8RteMquMzuQJoE0ge5RTQRkQavXAaERpRLaA0IuKFeT//Wh0Qx18AVGU9gTiJrU01nk7EAQK6LsayXQQ3bLYeF3LDcBUXoQe0E+gE6QTd7/ugfgnVfcB+kD3kCrt48HtD4mzZlkVfcJoKMsbJOV/Ki1ybd5xCg3hMOJ8TWoaVGHtGN7PH7+I9b97D6NNf8/YJU+7ArsKB7kZ+vWsky58dzfoXWznQk6enpBxxlSPqcsR1u0outx5Rbun96bf3HssyJ+K9n2/Eeb2NXG8byEiUkcBIlDeCDAdaQFsRaQFtxJuk+UxWwFzTYrarsD0RtCfCduNF8NtVAsrxk/Ms4p9roS6Ii1D0/J5TBOn2/moR6AHpwTvfuOhNGLUH5BBQRCJpSoh2oxRxnTU8fFtmpz9BkTHgkwGXLh6O8Fs8xhkMTI4/ggcDE6CONZD5f9Xxm4rJLJ1wUDLPwjPdGgYw96XavoVtRNL2hz4Arj+gut5AKyXA9QZJSuWBkr0oO7ytQPoC6FaELay4Y39y5gYPb/zIFxwRZ1zOkS/nRD6Yd5zGBhFyjpAToSEnNDX0ckqDy5jTX+Psltc5s6mHhlwvf+pq5MWuRrbtP53XDguvHcnRU4KS63JEfQbsul29uD8qqX6z2OvsZum3j53q+bLrWuhlEjABkXNAx6EyFmgDGhF18CaLHoMVyfuM1vGeiclo09tStTgDSVsxTsDcxU2+98PUCJOUNMJ7WHH7lsoZyHC8ImPAJwNmLx4OrAPGhoOF6XkQ4kwNIzxyU17wE3dfaDiBOD7ouyiuf/i7x6Q9SWUP3h7ZDYhuxHE38cAPBl0KeeNHvuiAtOVycmNeuDYv0pITjwE7IjiO9zcn4Ih6Y7VCSaHkBj+l5Cq96jHfkif9HuhV9zZX9B97Xd1f/K9/PnrMd9b1zTS4k1CdijAFaAcZi/oSrCed5svalD7CnNAFZ09HeCHV28iQpu+cwUPfP9hHqhmOE2QM+GTA7OtaQO5F9SLA4GdiDACUBxDzNBwTkcEmQaoNcNzTF8CUoOkE2YTqL0FWgbMJcbtYuWRQGNnZH/p/GmnIXeOI/FVOONcRcRwER7xFVsGaK28/rxJsYXJV6fV/R/zVziV1N5dc/VpJh91V/Mk/DK6N8tLrHByaQM7129p7QTqAVs/sQVyTEn6z6N7l8oSLsr3VhMms7LS2RuS4pa8HWXn7GX3/EBmOF2QM+GTA7OuagFtA/jwyIITjgpbVvJI2aAQLVoJbi4FFBqQTnD56AJUnEH5BTh4B9tHrFll5e13dNp710f8xSnJ6bQ4+6cAYEckL5G0BzFXfUO4x4VJJtdSruquELlHt/cFrP/7O4BxqP+dTeVTzwAhULwTeh8gsVEcCFeo3hV7FCVLArIKIJwN9fYSVt1+S8rYMJwAyBnwyYPZ1BeDDwB1RURFSGVPErhVIiPYs3rqQ4L+TiL5qFyJrgLtx9QGEvUA3D9WPGZ/9sb8cDs7FKs4CQWaK6HDUs5F6DBhX0ZKrur8XWeP2cnex5Dzy+tJb6q+6nL04WG08HJGZqL4fdBbKyDhDiagkEr5JEEa5jmMSZJLUebLQ5+usvP3LA/haGYY4MgZ8MmD2Jx2QdpCn8OxtRNS0Nn+K3VuDjJ0+icDJSB8OAstQ/g2RTUAnK5fUd6vPrL9xznrza2NcpQ3VFhcQpLN0RHcf6P3DbpYuHRz77uzFjai2IjIR+AiwEPAk3dgiOKOCxHoePE6Y5wRJ4jRPRvoK6JWsvOMeMpywyBjwyYI5i0ehej8qU6NqVaKDScSmmjJAJMFcHJXRd4H1wE9Q5z5E99HoHOTeW48/pxeXLm5FGAnMRPVDwMWIv6cWokzIRsBskhiRmTBmx09gdicdfQ7gHHkbD/7oqK/Iz3D0kB3GcLJA6QJZhjA1HBUSxpJERhVRlxmXJrMK4xoRTl76DkIHSgfifh74MYd7l3LpdTt5/bUDPDlIUmo9MXtxC46MxtVrUP0YIuMjzCdgNOEEBEOwE4OZSPl5GmMSyjeS0ffpr8BtyNyEnuDIXFGeLHhLhwt6BOHPgIbItNzkKabNKsaEgnCswcWIFx2VMvqqLYi8C1gAnEZD4VXeOu0wOzZ0MxQx5/pWxk2ZAFyD8k1gESLDI0xEJMosAkYSXpP83JTwIhMZIaMfoe8CXwf5DTvWG7PDDCcapHqUDCcMZl832rNPMiv89LbKVSKByeo1W11btoEayOgn0C+h7AD5D2AZyDYeum1oSDmXfbIJl/HgXAp8ApgE6lRVqZplhGg9hM/9SDF1rJLRT6DvtZH38NBte8hwQiOTgE8mvLW9hIgDMhs0b4lvxq0Q+smNzNyN66SBJSQlREeijL7/yAHOBHk3MAMQxk19lbHnd/LCul6OBS6/Ic9bzhuHcjnIl4FPgLQRFlhi1RBBcB9KfcHfIAHRe1tyzOhb9+Ii+m1EH2LHhrpua8sw9JAx4JMJOzYeYXz7ayjTEN5cHmOFyL7Z0Ek95Z8xHgPxgSVIbg9QGf04fSGH6Fm+anocwhHe2n6AHRuO7uEIs69rpde9EPgLkP8bZAJIdEwIJhERlan/N2n/qlpxwEgr0fCMfhL95xD9Cjn3JbY/o2Q4oZEx4JMNY6ccQuQwIu8GTgX8QSFgLhBZ/RsgEsdUx/oPg8ElkB5tNVtGP4l+I8LbEKahNDFuystMOO8Vtm8cXGl43ofzjJs+Afgg8N9RLkakKaI6D8tqFTRgOIEkl8RQsOlISnhGP0JftAv4B5CHWfGD7GSlkwAZAz7Z8MLGI7x1yp9ARqC8EyFfltYsVSsYjINAeovHUUmW9MLrjH4F+gIMB2kHxqLSxbgpL7Fjw+Cc1DT7umY0fyEqnwO5FuQtBCdVRaQ4Q2QLg8UqJ9Ykw3gOyWXO6KfRd4FfIHyblbe/TIaTAhkDPhnxtvNex3X+gPAmYBxojmDGHiBgPGoGWJemR59wUIHY6UXhdUa/Av1hCONR3g7AuKl/ZMeG+i7Qmv2pUcDVwBeAS1BpiTEKUyozV3Rj5h8jslluiQaZ1xn9dPqCi7IK+DqwjR0bhv42tQx1QcaAT0Zs36ic0/EKqjuBESBvRmhIjGvO6I1xJqKiDRiJuZ/RlAJsiTCjn0JfHETOQuQdwOm8Zepu3tzxCjvXD2xAXrTIoW3GW4HFiNwA8k6QhnKeEiYWGPkMt2oZqnm73GCVCTL6NdEvAb8E+Xtw1vDQkkz1fBIhY8AnK55f38tbpr0EPIdoLypnIZwePlcjbhLziYSpMRgFzMZ6ZiOjX4n+6Yi+DWQ0Of0j489/ief7uUr68hvydDe8E5XPAx9GZAwgUenOen/Ms1eQYSnH14S8m9cZ/Vro7wX5KfBthNU8tGRwzA4ZhiwyBnwy44X1vYw5by+O/BaR51E6QRtBmhHNx2bsJiIMyJIQIn/NQSewl/nSQkY/nT6cgsh44C3g/oHx7S/y/Ma+bUuZt7jAkd7zgf8BXInImRG7dkRKt/IbW5CVwEhsJmTyoYx+Mn0oAr9HdDnI7SD/huv8loczyfdkRNrwkeFkw+zrC6g7GhgHjAVGIZwBmH5/i3jn45oq0RIih1Oolvw0ld5cRKRk0UyHd5B7HnBACggNoE1AI0gTShPQBNqM0IJKK9CK0BKWJRhkLRNd9D0JccKwFKm4Utr+0lctIaxG5Zuo8xAPf782KWnudQV6uQDkr4CLUG2qmOe0/AXXQHx1txm/Sp30j34J6MQ75CL4dQHdoD2oeH9FuoBelB5QF6EEUrs0qRRAC1ViFRBJdt2rNMTSe3H99qYARYRXgb3ALmAH6C5W3pFJvScxMgacIY6LFxdwpAlHG/HOe/XgSskf4HwoIC6OU4pIb6FbPnHpxcVxjfh+nOC+V0s0NLg05Ig2xwTu5bpw5IjPfAEkj4MDmvcGUfH/kke0ESig0gg0IRRQWoGRoGcjtIG0gbah0oZoIbZ1yFQX2z3FLkrkWcCM/Eim447+0XdR1oPcDDzEQ7dVHrQvub6AuBcg+hWQC3wGU5bYYowvqQwkTzbMiYNJs7/0oQS6F2Q36B6UPSB/RNiH0onQDfQAPQg9HpOlBFpCpQhaQqQI4nrtsxccdWkolBCnYjUBcMSFUsnB0RTmGpbfQcSJSL/Bc/XbIKYNWBzU32HgMeASDj042s0Dd2TSbgYgY8AZTiZc8qkCaCOizQjNIE1AM6otwBjgHcAERCYAoxnIYSW2b2CFiDOPvsNF2Qx8GViRuljnssUFXKajfAOYjgQajBrfnSSRh9eW4TvtdKDK2A9sBbai+hywFZGDCF2oduHSjThd5OjmwdsyRpXhhEbGgDNkALj0k01AKyLNIK1AG+j5wEy8PbrDo1I+NfSeBIk/uE9UQVehr+qCbEH1BmA1D98etQnPvi4PTAb5FnCBp71IURkH2amidKiYxj6QIiku2onIJpTViD4F7AE5CHSi2sXrr3UeF6dDZcgwCMgYcIYMSZj9qTy4nv1YZSQwCdH3AhehtMUXT1ldyZQY1WDAYnDdJOabtPAnKmm6KBtx+ASObuGBOzzmNffDDm5hHK7zXURmYdrubRp9tdeahUpbmBTN436QJ1AeBjYi7EU5iNN7MPPwlCFDGRkDzpChGi5e7ODQiGirbzO+CHg/0I7pwjGAaT8NYUmK9olJQTqs++RFXy7oE5D/M1be6p2Yc+mnRyKl76FyRVntbL6PGqTbGhaXmfmLoghsBn4B+giwE5VOVLp5+LZMws2QIQEZA86QoS+Y+wmHktME0ozDJJSPgVyB6nBjC1F5YRJQVVouP4ymjzDmyBYl8FYI38OB3J9xRm8B+Cqif47SmLpvuabebkVMUlNH97d2AitAf4iwEaQTcbt48I6M6WbIUAUZA86Qob+Yc10epQlhAsr1IB8AWssqZlPKtdTOaoiTfdmqFH1QRPn/EHkO+C7QlG5blvI7+7tdKAxTELpAHkH5HsJq0C5W3p4dn5chQx+QMeAMGQaKy65zcCmATAK+CFzlSaIQ2W4Eli2W5BXHWGFqcFU7rWrR24ZDc4R+Eu1KDDgpXXKcHuARlFsQ1gBFVi7JGG+GDP1AxoAzZKgn5izOo1wMfAtlAt6eZO9ZKPQae2cDCOXFWoFPYYz4YDDQIKkpPatFP0nqNReFmQZdc/V1TNUd0HKB3QjfoLHnB3Q3FnloSaZmHixMmed4+4t9VJusmShrV1yeWZ59oyGMjAFnyDAYmHVtC3m5EXH+0ldTe4Np0mrkiHML4zqyAMtYgZy2WMumjxEWS0D6ausYDe0EuQ/JfZkVt+7sY01k6A/a530G9HoCpzOJGg0jftRO7wJbRZz/fMvZo554z7R3HPzh334xY8RDEBkDzpBhMDF78cUo30F0PEgheXGVpDDmCvtszWeJ0pGWJd2YSjqN0RIloloC2Y1wIyuX/GygVZGhD2if+yvgAjCl4CptxXKK0pDPMfmccavHnv3GGxsL+dX/8fX/GTcVnDe3NdXFZn+g6uK6nfxmRWaWqAEZA86QYbBxyeIxOPotYA5Kc4Id17sQW1IlylAxBl2TMdfCXGvZBxzdi9yDsgaV63n4tm0DKH2G/qB97q+BmYATX5metLqeeBsISL1t3Nq3tI26YWzbqPXfuvHTZUn4HbMc8o0/QWRiulrFVsukXYdtqxvVz6G6lt+syKTuKqjfzCdDhgzJeHjJLuZcuxh1bkL4ODDCe2DagM3FWobNOFG6ITp1NtMknq4UREobQIlei3aCPkBv7nP88vv7+ljaDHVHVL9cvkxZOGeFbdr2QkdDvuFjpwwbtgsof091mnDkmpgKJXxFXKqOXxMN9+K3g2zE2xueoQJq8FaeIUOGAWPFDw6icjMqt4DuBfzBSoy/Snlwk6i9N4BtBw7CItKxDxGPqYeMXYwFWMG1TZwDILfTULo+Y75DAIrxTS3GFx57aKfRSJiryot/evmjqzf/bgxTLy2P+dIcXBiJ/XYX/MzwxGsSwoWMtdSGrJYyZDhaeGhJJ8KtwDdAd0eZqKViVmtVc7gIq9ILTHuxJTGbwen7gPejeisNzs0s+1FnLUXKMMiIfK+A4drM0U4Tf7Z73/7hO/744njUKXtJO50os63XL7Ns1oyMAWfIcDSxcslB4N9RvgV4biQDqRaISL+majlkrjZjDey2lkpZjGcYz0OJSn21d8igDwC3gt7Csu8frEtZM/QfwfePMFuJPsN4LknXFi11zkdzTfH31PnnSMZZakTcBjx1bguuTC07EqC8WtO2AaQ+DwMNWM/sBSGiJV89VkLE9cmV8FzuFfEO2+4BLeI4PZToYdPy7v4V+xhjyrzJKG01xbUXz0C87sK41Db5TDLnCCVUXURKICWUEqJ+vdONQxdH6OQ3y7PVjQPFytsPcOmn/h20GfgswsjEo/007YOa4WlqSMrPA62zKVFrJGIn8F84fJcVdxwYSNEy1BEKkSMsI/vDg49qxjWehZM60yTBSMQa82s5Mzl6JOJxAAAgAElEQVTDoCH6MdrnOLhMBL6H6HAvUIifY2r1dkkIq8gJjGfeoOOCFBFcEI/hCi6eEb8H6MIbJDpBOlG6cHiZ9nn7EQ6idCF0onqQHAeh4SDr7h2aK/Amz8mj/kHpifPEFDuPfZ14XyMHDqOoUf+UfC9HRVCz3g8AB1D2keOPTJm7H2Q/qvsQ3ceGB7MBuz946LZ9zF78A+BMlGuBlvJDQ9KJwLDdmmNreG0wcdP1ZRKt8m0PcA/IP7JiyZ4BlSnDIEHLY6x5JrO52CpNJR3b620+A5yMAR9LWBKw5IHRCBPjIlJwDeUeL+nbG6pthwhXuRs0Y0vpjXeFtgVzFaiWQPYBe/FW9+3DZTeUfs+UeXtR3YuyF2U/mx4YKtJyHuhAGJX4tD9SbK1pI4N0gsbCdJkYID7v2g+6E9gBsp0p834L7ALdwYYHsgG8L1i5ZBeXLv4+0IbIQlQ9+1zYP6xvZKzPCmGqGcHoX9Y3NqXp8iMX5DGQbyP5XYNQwgwDRlofNdcEiDVeQsT7WiW7bC5X/yxHTgHLUAlRBpxTTxaK9fCEnh8bv+3FHrY6OkVaE8qrMc2GZSMckDCYuuSBNv9nqlx6gN3AToSdOLzAlHnbQXYgsoNhTQeH7CHgyZ6ISNY6EI1TbZ+nWdfhwGw/t2jZeVAZgTACocN/cADYAmykfd46hI3ke7fx9IqhMuEZ2mhwt1Jy/hUYjcjM0EZrD5oRO7GPCI8N+pPNZK1wMy1sBb6HsJkV/zszLQwlhCZ+w44fMftZmslYf5XIHzs4fEcmAR9TpOwDNmZPAeONfUiJ/zWZcGjbTWsBpmo1FIejNCP7If00obMAUy1jZV20EWQ8IuP9gCKwF3QLqlvp6fod7XO3oroFVw8c0w3jqQ4TzDqx1UhVGHQiveCZkSZiJzI7rKnh8OPaWx7KA/9wkAvxVOr7gbX0Or9iyvzHgI1sWJYx4kpYfkeJOYtXo/wQaEMYU/17k9AsKqRJmiyL7Ad+CPI4K27rqUNJMtQTpjQbIDKhSngeiWfep03IT4FBEIAz1I4UBpwye0pEFb1njAEkqa6J8N+ypGs0NNPWEVFvG4nDWaN/X5YIC4iMQXUMInPwGMU2HGcTDk8zZe5qHN3BugeP8sZxta79CUtE2knqOJWmtQatJPoRO2JQZ9ZsGgxJ2fx+thozYmZwEEYC81G5ENXZCCuZOm8Zw5o3D1mNw1DAiiVdzF68DHgncC3QFItja4WC+g+eidEH7IV54XU4wXWBFYjcxYrb9tejCBkGAZH+hTE2hANllCnb0rKpuDRNfwFOORVvuUe9811/kicqKkjAxqAbY5AYFwnSla2OTpqBRdQqaqUxJV3APkvVlr5DOmb+U+ireoxCZCSeq7f5wGZceZqpcx8jJ2t4+mitrharLomWt68wNQVJ9MPvmDIjtgmZtIKBPZI1q0MHeVdaEC4GaUeZQU/XUqbMW8GG5dlgn4Z8025K3T8BJqNcCEQ+Y/JE19IUxb5VUr8TgE2g/4mrO+tYggz1hPm5zX4Y6d8JpgpTGAmjiUXLRxPQMxg24H6MXScpKkvAEJ1RJ/mqjbeU8mw8CIrwY7slGGpntaMZauZEiTnhHTEJMoW+hzwwFmQscCGq8yixhqnz7qfgrGL1/YMsEdsTHb+jJC2GSkpiIxZu0Q/NCbaGwZCkKEernm1zALDpCyjDEeYDE4G3M2XeD9mwfHsFyicvln/HZc7i9ajeDTIeYVTk+0VWPvv1Hpm8mX1BLOk4iCagdCL6C4QnWHl75ipwqMIWPiJ91JRmzUmWMf4q5THTHq5NNDTUP+/ZIqyaUd0CX03dmTrbMaWwhBYQOyIteKbWM4NO4B1IjMHGZKy27TONfrKOpBVkJvAplG9IUb/J1LkzUwpXJyRJ8BrpbyHMyUY1hGkT6Ad1GPMTLEZ129+Y+IQHSNRAxOkXQCcCnwa+xNR5U5k1K1v5kYQVS7pQvQf0CVA38h0i9Z/UCMRnvJT7RZAuitWoPMCK27PtY0Mdkb5o9NFIu7CEksh1DYNFQ0P9f4WC98tQFemHMahxYX5ksL6rOUsn3ggix6YZ1xHnEtYszZ7dhXFsacCgFbjvsxd+VTrSLRlNKFMVnQBcwJR5P8fJ38a6ewdnwIpJtCkDZ0z92w/6pmagL5PUqAQVT1+VvgCMBK5BaeLVU24B1vchBycP3N4d5PL3g7QD47xAS7IJYXdIUxqyPrA3cd0H3A/O5vpnPEPdkWaOShwDLDNdGiLPToOGwVqa0deB6uRElAFrA6G9NCIdBZcJlZq4wpbooF1zepuWxMMjtFPo1EK/ErxozSDTgbGC+x6dcvn3GN/0AEvrsJgorc5qy1ff4tVy3Rck1X3t9FvwbO5Fpsz/JhuWbelnLk5cPPKjErMXPwBc4i8aLPfRYFIamfwEE9TgmnLfCTQqZZXKakQfYeVt2cr0oY7UsSptvEyYuCeRMNpOS0sBf99pXRG89tW6Uz7xEHdLpi7xTdykSL9hpPh1zIWiMSCY9qzIAquEGX3E/iFWnErxpQJ9jDCzKKa0HqYdqapzgXHs6O5gysJ/YsM9dfCV65dFg+ukPFh1GHO2UEP+bfo2LbA+YYp9KXErjEaqO/Hbx+m3IHIVsI+p87/N+mW7q9fVSQbN7YXelf4EcLwXRrSOoaz1MftC5Hv4Ad732Av6MKLZ2b7HA9IYcGo/rCHM0oqMKADU3wYs/nszBlwdlgQcXPi92Bzkg46dpjK1rxN4cvggYMTmCr5aJLJwALLVaymNLZW+EWamtVV8Zf6eR5iI6uecnPtWd8oVN7Phvh015LgyYszXuK/k2ET6kn+T+doTocgLkjIXf2dsgYX/PUzHANXptwAfR/gdHXP/i7VDxkvZ0MBDt7rMvu4BkAV4amgnNkELGa4Qm5DZkymPCa8HHmHlD7KFV8cVNCoIRR4lTcqNdlEFI2hFhx2uX1YJXu29+/m6Uz7xYEnARG18JuNN/Z7VjA62bcIfrINnkVl9CnM1oyRKuXY+goaYRt/Kc8Q2bb7cZIbiIIxwXfcacWjTafNvZt2yxysUvAZE6McnLTavS0Nt+feDjA5tDtSm/TypE9uMPnyved8H+iIjcbkBzW0BVtdY0pMHjuzD1Yd9KXh0pM0Gbdquf7OvRtvOQZAnwc2k3+MO9gQ9uNZIlMgYV4swA4xozdM74PwlIJKfDJWQIgETn1lB/+o0ltZsUPZIodbfIL2lOg5nhabka+Y3iJZG37o3Va6RQc5Q4ZbRpMpFoN9i6rxvsH75nYnlroY0+qbUYk4sEu3yfcx/zImJTdfKXxLTNRl0mF8/QV/oe3ltR9zLmTJvBxuWZ4e/m3hwiculn3oA9P0Io0MNQ6KWw+wHxgS3XO+bgVU8dEcm/R63ML59pW0+aT4ETA+CPkY1n+a+3jsIyifPx3j96Z6ASJaAA+YWBqYgTTVSLV2YthItjV+aDCmW1r8IGHZF+gZBWzg2pTZbJC0nKwBTga8wdT6sX9Z3JpxK3574WAwwgr7m32KOId2UTltVAk4oU5/okwc+iOssxztMI4MJlZ2I+wTQDgyPTq4wqtXUQIilidAehI1Iw9qjmvcMA0OStGsLMYlbLa1+FtkZopE+ffvf/nn3Z776T3+HSHsdc951BGfVEZzMt3gNSN6GZHbqSnzUZIhY1xFVWPTDx+na0p3VsEypy6Rr0zAvK9FP4QdR6c4ofyhdBnEAEQeYhOpNTJ1fYv2yexIoVkBV+lFGVhPJGvJvPoP4O9IWYZnPQxJpzLVP9MchOo8p87exYVnmKcvEw993mX3dcuAKRLzjQSPmBIl2FXMyVv7wO4BHWfGvmb/n4wmmMATRPlTrkBCzEcej5Bznq/5Y5kUzyCuK+HdJ1+rfla+99+Qdp7jkSzdkrmdrQPo+YDDUFiZT9GGrfu1rSVSFRRtUNQaT7krPoBk0GTuPllSQmHdzwqDxRp7U+KPpHKAd9GamzHPBWcaG+2treLXQT6yjtAmPMdO11U1Jk5+kPdNmXHMSFgm3O7TBhBO3QlSl7yDMBf0Jno/uDCaOjFpDft8WRM/F82nuhdeyv92TerYhPHYUcpqhnjAnVmka575OzhMIfffLf5GZJY4hKjPgtMG4JpiDgwCUgG0I/gevyHzzQCMiLSgFwAFxvL/k/Z+T8h6LkVYV4aPxaplpxum3A58H9jJt/nrWLavMhKvZ1CvmP23CI+AdwXgAETdavyGjLqDahHdwQgG00d8SFtSr+beytypJyUf/MBVhHDPmbuWpBzLVlYlVXy8xe/G9wAUIY2MqRSAyCQNjksQekEdZuSRT7x9vSJug95npZhjKiDNgU+KNLKJJkNJSJTiSBLV9OFzG0/f3bd9n+1VNUByNyFi84wXPBzrwPCs1AY2o5mN2yQQhMWZLDqVjX1qPFMNUeVvlC2xsQS9RwJFZIvJZlJsVdlYtVyR/NdDHjpeY/68C/866+6uvrJg1y+H1YU0cyQ9HGAk6HuEdIJNAz0UZAdLsM2rrXVYZwjz7gTHp2I6MFa4O6vxfHOEJMik4Ae4DIP8NZAyCk7hqPnlCuwOVh45mTjPUC4bK2PbZbpt+ktZeRDRnaVrCDMcacQZsD/ahTdKOZw8ARFWbJgYyEdt4Vzewzf+tAGDRIocXDk3Ec5CxAJHxKK0IzXHbb5B/s8FSbo9BBu0Tlyraiq0HXnnzoFeLyC5tv/xbbLy/irOOPtOPT4bs/KfRS8KqVS7Q5f92AeVFOtPmDgfnIuBDKDMRGeUx4uBdycWJXhvMuhZzgzATaCVjwHGsvOMgsxc/CIwBbY3Wv0TbBOBXeg/CGkqjM29jxyWssSpiww3GKoOZhv3LmJyZLnxTBakMxxIpEjDljwdETs8J7iMSZ9JKEAOGMFcXeO4gtwBb6Lj8f6EyFfQjqF4K0uYNUmKoUG2GRpkxRAKt7Ke2VeOBIX2o0qLoh8nxLNMu/xnrqpym1Ef60a0mCfmvV99a98AB4C4mz1lGPn8xyOeBC4FmI1NGPo37mC094cNHBouwcYxHJX4ObgYPIj9GdS9Ki3dPtG3E7f1dCGtY9TfZYpjjFgbTtBcyxr57OUlEe2ZP1jIMKaTbgE3JN6aetaQ3e2/i0cTa+11gLdMuWw/OGJAPA4uAsai0+hmMptGEMBu1SpPxso8H3i8im9Tbf5mUaCD0a0xYB2xaUQQeYNr8LSA3A1cDLfH3J0jrkXBbI5IULiNQGcnkK/NsujuzA9tYcdsu4AfHOhsZjiYsKTi8FmPuKtF5rN0XQ21fxnyHIhIW2ojx4aTMrEKmZf1MBhH+NQfYo/Th1z3osm75TvLuPyB8DPgBwjZEDCnUkHJNJmDmP2aytMoQKWtATyL3IjIH5AqmXtGamt8B0I9Kv0dh8rNu2S5c+TLIIyA9Xj1Z7SDMQ0p+zIEiWUviIDqeXCk7xyxDBnPyKtZ10PdiDNYYS2IMOmPAQxEpK10NNaJI+QMLRM7ixbgOf0KUp9hqkEHGU8tLrF22GYebgBuBhxA5EKpoxcxcoKYxy2pPMiLTy6jUH6FRzoKqNqvqIoQOps5LVvMPgH6UeVexrdYLG+7bA9wC7ELEjXx/iNZrbHJhlCEmIUfSnEVoa86QIUNsfAj7kX8r5jhihYsxPoTJs0VYQwkpjjikbKeLfC9DPAs+fMwJOJZ6Vay0RwlP39/F5Dn3UShsAxYD1wBjUHVSV0wHYYJhpwzKaD63JVYhxhS9rUmX+Wev7o1ncMD0002xg4Vxp6zmhUOPAWOARmvWEZ80BOFQfmZ7+DIh0kK17U/HElMW5BG3GaEFkSZE8qgW8PqRi+IilFAtgnbjSDclt5MNy4/vvZazrnJ4rbcZ1RYcbQRpBAp4/tEd/1O73k97UO1BKSJ00SBdrL7v+DYpzJhb4IjTjDjNQBNCAVVvu5631sQFiiAlVLsROpFcF0/fPbDvHk7UbRiLsEztWIWo4bqREw3tVxag2IyrjTg0otqIQwEVY6sqLqpe+xRKIEWUboQiOfH66dNVto4OEixf0GqMnbY0E7uJhsX2z9pxjUH5aGHTChfYSsflt4D8HrgekXMJyh3kM0ktmrT3LlDjpK05i9phHJQrEHmQGfP28dRy4wNbnaV/9CvnfzCwdKlLx4Kfg14FNEaepe1XTnPEYaK8xqCJocSApy3MIzoCGA20oYwCGQmcDQxHaQJpAm0ESl7npgjSBXIAZT9O7kU6FuwF9qHshdxu1t01tE9/mnR5gVMYCdKGyii6eocDbQhngbTirVZvAvIoeVAXpYRICegC6UToBP5Eib10LDiA6n5gHyJ7gYOsvXfoLg7rWNiEum0IoxAZSa+OQngj3tbHEUCTPwnxfBJ4k41u0CLeKv69qOt9d2UPsAfN7WP9XbV7I0tlvta4lLiWxBxHzLHlKGnLBgOT5zg40gqMQBkOMhxogcMjgDcitIK2AC1evySYGDt4fdIFLQE9oF0gB4EuevVlenUf7XMPoBxEdD/CHoRO1j846G3U8gVtfCSTVxqL6rx4ZprYCoGU62OItffv4/wrfwTuAVQ/DzLVGzgwVDZWmopHHEaDwvRhHfllFyYA78XNbcL2dWxLuv2hb+f/aDBilzWIdHqMyX9pZAZuNZJaPHmV1WPNBAx46oIxiHbgOOkLBSP7HuNkwziehLIT2MzaeysPgtPnObi5ZlTOBZ0EvAOYhDIRYRSQj7/InmTErvf7798Gvc/QsWArsI2c7OCpe4aGdDxtUR7tGeO1WZ2A8nbwr5FRCPmIHVEx+r7/DRNP0cJFOICwC2UHynbgWToW7EBlG+vuSdAOHQPMuKKAyxhUJoJOBN4JTEAZ5w32vq+BcCgzTVflIOPbu3jffRuwBel9hmkLNqO6lVJxvy8cVEDSRNV+l9W3kk7HiiR2iI3F7XNneZPKBE6edLBKQD9p77GXqAfVx3nmwQOVy1cF77gsT54RCG0go1FtA96Mp30bA7ThTYiaw7Lai4Xtg4RMu3i0boqo7AP2ALtQtqE8x3lzd+GwlQ0P7BlQWSogYXBLaFRJCJmy3fkqvO1YTr6evruT6fPvQp0icCOiU0HK5Td9KAvJM0V7YmIyxYAxhoskAK/FLxRkuU69Yj/r73MjtAZK325sR6OC1997wJPoZCyK49WXqRJPmhiktQ2jkXllyoO/fUy4GuRzvoo3HZG9kCRfe/EeA/4Kz1tYMqZc0YpyAfBuYCZCO+jw9Pmjlf8o0y8/9yYrI4AOhA+A7gRZS68+yfkLVuM4W3jq7q6K5RwsTFvYDHou0tMBzMAznUxEKcTaaHxiUUaq21N1QEagjMDzeAboAZCtoBvpWPAUykZgC+vuPfqq6o6FTQgT6dWZoO8CnQ4yBhFfw2P0q+p72U04oCMRGYm3ha8TZTOOrJZhwx7VjgWraWjcz5NLa5ey+lP/ySKyh7ctLEDxm6i2hf1UrCRhWzaexU5WUjNND/BZJl/2CJse7Nv3PO+yJpDRCONBx6Ocg7erZBwivtmL8rur+puoMDkxTY1IAXQ0wmi84z8BOoFtKGtpn7sB2ERON7HuwbpqrxIYsPXBzFORxHgeOXydhA9vTwtDLnLssGZZNzOufADXzQM3orSDOmV1T5LYb12be+zw00laHEA4V1VnImwGDgZJ6kY/6BhHd3azF8+e4iRK4xHYs81KcaQHT3IA4TzQMUQkzgFAmEy4j9lCx6IC0jMT9HKQOaCTkKBv9CX/wW1kZoRVP3kQb4BB5gJr6XVXMm3BCshvYd0vjo5EfP7lTagzGfRS4D2g08s2+EqDuN0+faTWUVD2SAUNx3OteQFwNcIa0EeZdsUqkE1HhRFPX1jA1fGgc4HZeN71RsQLkpR/+76G+kFbvPJKh8Ic4BGO9NxNx4I1rL23yuSrjvVvajEaewvA9MhkOelv2ntSr2UstZqSpswvoLSBtoNOBt4OTAQZj6T0V+8d1Wmn9knjWeKWSABaEDrw2sVBYD298kva561Cc+t55r66MOKUFboYM6E0xprAPNLcn0UOdTjGeOruLqZfcR9KK6I3AuMSW1zqxDHlg0XUH5HO6YjIbHHkHjdgwEnR+k3fuJc0mnWGaDeIG5d4/UozpfVU2FIjIBxEKYX0zPYyUPppmDJ/BPR8HHgfSAfh4rJ+5Z9of4D0+gGEVuBS0KmIvAdKP6dj4QOsHUS17KxZDq83TwBZiHAZSgdCS+W6svoFEJqrzDh2n0kzC0QxCnQhykUIlyAsp2Phfay9Z2dfi1Yzzr98OK7OxfMXcAEwMmxvfc8/fayfAjAJT7KbDizl/CvuJH9kF08aNsdw/O0z/Qr5t5h2o+tQtNKZY7XtPTB4X2yM96/N+qvW76bOa8ZlKqozgSnAJETG+b7qq9C3Clr3/MfotwIXAzNBZyOlB2mfeycbH9hapZRVYS3C8jNXayXakRKdMGAVeAhgzX1ddFxxJ/AmRD6FZ0uIIq0saajQORWZri7jmLpwB6UeL7JE4wyE/lGHSD55QEprC4lEkmbQLyKU7Gh1oZ/EYDquOFck9wXFXYjdBvqX/yqDUEr+vaMG5wITUX0HHVf8G8Xi5up2wj5i2pUtvO5eCnwIuIiA8STmNQWV+kXKvLA6fQkmI3PxVODT6Fj4E3TYI6xbWj+NwLSrHaR3LOj1oAsRJmJKav3OvxmvxvoRGoGZwBgR552UCt/Vjss3sdb3npc2VA6o/lNm6BGNncmQ7QlwlRfYzD8JU+Z65VauxDPJnAsML5NJK59J3y53vfOfSr8JuBDlXOA82uf9J5pbMRBpOKomiGSghp/WEjehQEMBa+/bh8gSYBVIT2p5bIcTNf1sOrQC70a0pZyBetK3nw0yVEaBONG8G3mStDxWyreAshP1T8uK1ctA6WP8Bc5feAHILYp+HG9l88DzH6ZN+rZV6efxpKLrQG6iMOxCpi2o357o8xeMxXH/HOQrwEKvzBXaetAX1A6vof+nhlel76DShvBBhK/gFD/F9IUj6lL+6QvzOKV20K8Bn0Hk3HANQ/3y35/6aVPlgyBfQ3KzmL7Qt3P6baSe9Z84PtjSnhq3CVw0sAEnoaY9xjIC5AbgM4heiMl8a6UfeTwI+a9IHweREYhcBdyE9F5L+7xoGfqA6nr6NNNtIC3bZlP7eogIvYl4+t4dwPdBt6fGibXZtAqpmAiEOTgS/1D1on+0MPOq4XjbcjztSZhdMRq3r85R9X+Uw6AcZqqFlG4wGDBGZ6gHfaR83bFgFqpfQ2QuSqE+9IM4xnV/8i8yHJH5wFcQLmbqwuh2r75i/DyH8xdMBr4EfA6YDFJm7LU0taC5aVgY/1lKO4ztY+8z/UagA/RG4PNMXzi6CpXKmH5l3qPHN4Gr8CbEg5n/OJ3K9BsVLgW+hsscOhZEDz4ZzPoPiGv0NnVRp9j0U16QPkQ1AmNRbRwQfTvD9c5/dfoFvHUlXwQ+w3mXj0ohVBEVGLCWX5hUmWL9Tbs+hryiJoj7BMidwP74worEBPSzUJNA2xDyXvK60z860N4LQP0BjGh2k65Dk0bwV8thQbj3ZwvIAdb5+0MdqTd977/zr7wA4WaECwGnbvQx4xjX/aEPTYhciMhN5PQizr+8f5LwtEV5WvMdwE0gH8A7qITIL5J9e3C32mjoXQnjmT1hrBv9PDAW+DRwI+cvHF+9wAk4f6GD6lQ8L26zEIzVzYOa/77Sd4AOHL6GI3MgGCfqRj8dtiMg8O7VpGXQNsPTJgGV+VpxwPTNlwxG/mujn0cYC9wA7rWc13dJOMqAg5l68IbYYBF9HCJxYAl+5oOGvuZv8LHm/m4c5w6ELQhubGCsOHiSXC/JvyZwJpNr8GZ+9ac/+Jg1K4/KhxAp772L5c+4sdcTSEqYhzWIuUhN6k0fYCzCTYjMBMnXlX5S3xgY/QLCdES+jJOfysxF6fuhkzBrkUP+yFQc5ysg8xFD6ov8zPzZdZ7wDWJxxSpHnenDSJCPIvJZpl81pk91AKCMRfgW3qrr/FHPf5/oA94CrW8gjEWMCWL96MdhajKjaxOSE4bx7WeSch0J9r2G1YO+WPHrnf9a6OP4gtX1iH6AyfP6dKJbsg04yHiYSesn1t+knybEH0JOjiI4Jb8L+DmwP9paxfgTlAXruV9WJaXeImln4JhH7tWZ/mCj+7SrgAtRaYw2YuM7B/kUKzzId5Am+ryI8EtEoww4qd31hz6ASLM4zk3ARSCFuuYfoh06oDFw+nmQmShfQotja/5Os2Y5HDo0CXW/AlyMSFPV/lprf04bEwaVPsOBjwLXM+N98QWTaZi6qAnhOyDTUXGOXf77TH8Snq20vvSD9pmE2CNJuDZoJEmOkSSpqmkXoWdA9JOKUc/895W+iIMwFpHF5LgoIXUqEiRgk75U/GbxREaQpD8eclj1MxfH+SnIdtTfhxrm2y9IaKvzoZFIRjyiZY+Wf3ooPQ4O/cHD9IUzQW4E2iKdy9yMn6gW08RiRMqnrEXZypp74yte60HfQ5uqTgeaIuH1op/U3+tDvwBcistizr+qtgVJh04bgzo34m2dKKtcNchPHxpN0C4FYxKIN8BGyAw2fUaAXivoNUy7uja7eO7wlxG5FPUl32Oa/z7TdwaZvg+fcSdK0SSEW3GSrisyDXFBigOib7+r3vnvH30HkcmIfIhpl0+oUAERRBlwoQFyRlBV5ks5s2b8tMlHTQSPERob9gF34/mwtWZI5gdIaGhmm4vEsekwDscZhUh+kOgPDmZcdTHILSDteFJZOY9iZkyMfBvhZsM18+795yIsRZxdie8eOP2ARuAbljrn3wq3rutB3zsA4DM4XMS7rqrMfKa/bwSaux7kahAjrjFg9KUfRgaeyIPk+0GjD0CbKtfjuBdXpTv9yvmIfBpPlV8D/eO9fmqgLwKOpYUUjEmilc4WEuxrewGTPaYlw8XzljVA+hgTk8HIf7/oF7h+7vkAACAASURBVICFuO4cJs+paZJoqaCNQSJxtmA9jzwrPy5fi5V2CIvDq5a64NwFciCRGUbKGNSDcR8pu11P4XUedDzhQqx6069zncx830imX/k/Uf0eIjMRKcTzZ70/aXYYCzPLxlpEHkck7g0oqXx9pm/WnZ3neuT/aNGXVuBLuG5b+ve6shHRixH+Any1c6QeqZC/sNLND2AFmfdGgzx69B3QSTh8hBnvS5cypi1oReSriL/rYOjk/9jSlwixKCIuXbVMN+LCUYm5gAyvNc7Qkt/jotozIPpJrm3rmf+B0EdbQS7HyZ9boRZCVDHKGjkIVWJGJsOXBpnx08RmEikziCEHZzuwFqUYbcA+ItexC/xtJBiqVe+/MIoCcg7eUW6DQL8OmPWJPO+6eiIzrvprVFcCN+HtT7UO7jCvK3U8I7+xwUWK4NwBsoWnfpHudKL/9KP3CWPb8UMfgKmofJjpV8Zd9M1a5IiTGyciXwX8/ebGYGMfrxm8I+I5KEhj5Nvs11Cmcazoi+RF5CoR5jPzquQFL3n5C/CdbAy1/B9L+kGaGIwx22TmpsrbHNtD8sZ10F6r8WDBRaTsbKRf9JP6Xj3zPwD6XrpZIBdy3uVVpeAKxxEamQxom5kKmUVSWFr4EJaAAdb83GXGVXfj7clLWVKeOsoat9Z1NP4E0s5hHjD9XDrZNFxwdRMu41CdiDCDns5L8RhuI+XzTqvkL6EtpF5HaP0UeIinfhH3JCNJN32lXy3uQPN/1Ok7OHIDTv7HQFRj0FNqUW9P4vhykpS+mXQdxE/MakL+jiF99ez4HwLWAE9E0l1w9Shc/STQlH5AwbHN/zGjL2m0UtpfLc014oXKv6404RTHRX0VdH/pAxFeUu/8D5x+I6LvRXkE2Jyc2EMyI0h74UBglm0oQ3tX4eS6IcFpRl3oMwHTLlVf3ABczsz3VXBhqI14LtVaQIbjahtpew4HDy6wHvT7rL4r2QnK4L6/L3CtX4BgYmIe/H000Ibb+0lmXv0NVt/pTVzOvzqPMhPRjxNIffWHd+YvHERYC2xC9Q8I+/HOVgXRVlwZjeh5wEyQ0URs7/WETAcu411Xb+XJO8tH37n6WQK3okevDbngu1BVfyujN+A5eG0j+B171NLP0xSWieESlSjT3lOmYWxD6iN9b4JS8upYXGAf6CbU3Q7yPMg+oJsc3SgOrjSDNiE6HOQclEnARIThhP1WnMT8Vxqga6kflYtwmECfGHBEPA8I2jpu/2F4HiTGzMF6bs4mHIH8kBlU07Hm3j3MvHo73gHkTqyc9gEBSZMm896sFgCHcXiDkh+nrvTbEW2PHY0X+U5OPG34SmuWlBYn6RCCcLO6VKGPi7ID+CY5Nyq9mIi1xVrp1yH/3iBaBO0EtqDyOPAMontQuvEWNw3HkzbfjedUfyTiaw3sb1bv/COfRpwleGcMQ55W4CuYJ0cl5sGsz4Tndv2o/72gE2Q1sITSkRWsu7eTanj3wgJufibKYuBShJFe/mL0E8aRGvMP16D8khlXP8ZTd7q8+5qxuO4HCE69Gij9avWD9viTj9WoPAps9yYkbg9CI8ookEmIvhvPx3UrnvkpuY0k1399858onJoJ1Brrjec2Ywx5g01DUt4DOOJLwH2iX8Q7KW0/6CrgYYQ1CDt4elnf/KW3X9VIrncSwvtRXQiMwzsgw4lXpJ2XPtSPt/5gBh1XPM7a+6JnwRtIPg1JiQ7cGPdpUEhVgySdXzu08QSeo/TGqJFe4o0bkuvGDIt+v4L1oepMX+yGUKYfdAwx6Kd1zEgcM60QThRMG1XELpJGX1zQnQjfIC/38at7qh87F5atFvp1yD9aBHaD3INwB4VXNrNqVaVO/k9MXzQCp/eDwGJgAkJTOGD2qX5qzD86EnU/yrve9/d+4rkgMxO/bwRGw7LGy/Ijsw1KD6qbgJtZfeeyCnUQx6/vKQKPwd88zsxNs/BcYc4EmiPfVK13W9mskv9z8U4z2ggcxHU/TiD91od+Sv1oD9650neQz/0Lv1p6MImaj7uYeY2DuONBP4FyNcJYn0FXq///0965x9lRXHf+e+reGQ/DMB5krVbRyvooipY4ikJYlrBEgIwxYMAgg0C8DEbmIcBAtBgDZlk+yOsPwTJgjAHzBhkwSEiIhxWMFYwVEEIRgrCsoihEqyjjiaLIsjLWjofR6E6f/aPvox/V99l950rp3+dzZ6qrq06fPl1Vp+rUqar4+Q+2I6GpxMIzPO2Il5eQkoziL6Kxd0fAe4rvGU0/BzII7ADeQHmRrKzmr1c0dm72By8NAeuB9Rx52n04XIG7xnwSxfPhbbzXIR/lSFQm5t/BiggTtOdBkfZv8actp1z3HcXrQuRd0MCpPJ6X8Ck4T4RV8QXyRMmiWfQj71e86bktZfiKJDGM8hHI3WRZzFvLhyJSep7h7WFXpF/pZiX+8yM9VgG3887y9eX582Dd0p3A/Rw9ZzmOcxvoGQhjIT9/ngT/cD7IDxAxqHNdWfrFshFRZmz53OV4z+NwPeterDzijcQCh7W8wYw5G9Hc7cBsoKdseQ3zkv9v5f9LCK/xJ2dtBk6E/IEn8dEPhvtRXkO4iXdetC+dC2LtMgf4CLiFo85aAnodcBquKTRcRpLlvwIx/J17r1KRwH1fJ7MwAvTks0HF3YjDp7x89HOg/SCbcDdHWk62o4+1S+M9GQxg3YptsOBbHPHe3+A6mx5KcY/7MgPOauUD04Bx/NfZhveWW/m3HEeIR6DerlMwkY0ZL9OFXrt3aB71VVoNshk8x+KFvoMWRnT5e54RFfhHskCkU0KkZSAh+lYLi5biQumCz/c+MxCOou/yNgCsQ+Re2s2rrFpa5YHrTePfnU9SfYZc9nbeLTuiicbbS7dx3NxrGf7NP4KZD4wvaypsjP9pKEcAXYg5PEw/0IB463PkiKaIfpSH+AS3sWp5PMcBrlm6nWNnX8+IAJyH64cQjWADGMG/CIeDTNesTgYmuh0Syiic2ugH6OxCuZ+97Xfz3uL6OiVrX/iQGXOuB+fvUb0CYVKxo1bkJTH+LW2FJZG33RdLOp/CEU8e/PftjJfmgH30cYBdwIfAUtCXWL8iuXOxi1jgsJ6XOGLWMOhCYBqoCU25elG9fMYBU1CnA7AeWWhZWiKlxh8sSsL70QkIPtjl8jYueWW8L+ATbb0MD5dpeCTwTQrKMdCC2mQWyNZU+sGOkM/EJYF4z7cqNOjeDkEw7Gvwi3SGQbaBrkT1Ad5Z/mHUG0dCytKPi/9dwIPs2fsd3m9Q4axaNMxxx32X4bEG9AZEexLjHy4GHRdJ39coeFpNXwMawiCwiOG223lncXxn8QK8tbyfo+fcgjqTcc8jzoZHE7aeSDT/CllwvgDSBYwNjxcao+8htBv4ISL31K18C1izdBf/bdYPMNkhYD4wieLOV0nxH4VgW1MgbWmDrGFb3jL3MjggQ4HO6ADCRtAXEFnMuhXVWRbixPpXXuVPTj8EuAUkv+NcmU5qtfJR/hAZGUOEArZvRSn4P2KUvCt+4HzmSubPVsOq53ZTxm5vR1RHJC7ESF+838QT9n5s8VZkCTzTFvbxl0OkD3QlcCtGbuCdF+tQvpH04+R/CPQZ9gx/h/ctW2HWg1WrHNq77kJZDuIkxr8wS0ROiKZfVzl5A1jIe4sbm2uLwttLt4PeAewE/O/l/d418S/HIxyP5OeXfbfioE8O5CWUB1nzQn3WkSD++pVBsjyG8CQFWXjYK13Hwn8JGsjj7QQiFPecLvr/SCmfL00hXEjjyQvRSlgzoPmtKJEc0As8C1zLgQPfY91Pmq98C8jqIuADl6+AHOqVj8hkkPC6/TzChzEIpY8rnh+WMHjS4L8OhesSyShCtoM41vf0tZfiDxfTRMjF98Mux0Tpe54Ryh+ILxfGS79IdxD4CORV4A7gata88AyrX6h9xGCC5c0io1j4ZxUZvsV7MSnfAlYtGkaztyKyKUH+e7SwNaitfOCJiwqLL74P5E4wJYWQBNp3vYHwar6jRqn8BL519fyPp3hCl5dOVLhm+huABxjReE2iby0fwPAIIq8hMpgg//5fEFHtdDFt8JmehKEOAqXn2qCaw+1w9OE6u96OcDPv/mQdq1ZVOTWVEN5Z0Y/wHME19o3IByYhhY1xwqhwGEPEtVfQ3kjfxwiGo75Iy2J35HsW39VbCG0CgpBcfLAU4sTpe54Ryh+ILxf2VUIc3Ar1Eu7Zs1ew5oUfsmZ5PL1Zf4GOk//tCLfy1vJ4RjVBrF2yDeVuJL+zWvz8l6Js5aNsfQykBQfkWeBD1lQ7R18nVq1yELkXCvuuB9mpi3+7Mmic/gDwJCKbWFdmt7Z68dby7SgPAxsRKdGPj//AAwND0yglHVTmRMV783rCwT2nC3jvlWGQDxFZCHILH3c8xrs/2WVPPBqQlQj9fjlQv3yEiRSWxVlgOY5QLD/PQ4rhMkxZmab83ECrwchAsUIEe55R71fNByv7AZtAnyroUI5+4F5JgewC2SyZTBZhKjPmTOSoOQ1sPhAog5IA//AEq1+o3tu5Hmh2OSIfJMJ/sU5GyMe9wHPDHu/S2Y6Rl8lmG5vfrBarl30IssbzfD9vtfIflBuBuPrpr8eRVby9LDm57BmzFuFlX8MfH//hshOCLa5wS+xJfLxVQceL9S/3su7l+3n35dX8bQLezY1g3eHbUNmK1wm3EfkgPYh089/OtK44sjeQRWKeSWEN3pRAmggiFn+QfQQDfucx74uEPCXy17Z7QQRoNZV+oYJGePd581jpFvKEvnnhKK7/qaoPAHdiuEnauIBjzp7OzLNqOqS6+JhgUYuTf9WtoI/WzFetMM4AKg+j6iQm/yj5FMIhOeKXr0v/TVR7eXNx8xpE4ce+dqSweY+3I1E1/4EEEgzUQ1+Hgb9ANNl5yfcecRCexV2qlPPzEqd88nR88CrtwDOt8YFOQehhNnr7EhY4iKwlOA/sQ43yEcbASBUKOOOJKfSWCnS8Pw8PFbWqr7DsUx/GCY8ogkIowFYQo2ARYtPoB+lF5a8Ub2voALf09CAcBXxNYSHIt1Ezj2PnHMqxs9upFVZ2YuBf5FlE+mrmp1a8/XwOeN3/rMTkb7lvaSzC4RwiP8fQXFOg8AaCf+4zVPSr4r9Az/aMUrqa6csWkPWsWZbMFIUXby3bgspPCc0/enhqVD42ZRKiX2jzJSLee49w/D7VxEdA5O8Qcv6mtAH5IGPQjLXt8yvgwq62XpOHz+xRYEgCApcAI2KnsS+ZoEW6/O9CQPjBd8UuA9uHs8qqCfSDNKJoBr+b77uXoe2nZ1AmIHIGyK0g34bshRwzZxInn1zZNF0c8EXSr59/d/vAJag0Z7RndBfCytj4r0b+wcY2kraAyDZEPuStZdalEonhraU7ENnk56vIcPX8R933pamL/lokv91nc7Ac2OmrxwXe4pKPeqveAWXakgZ/UXPA+wR0O5J3wI3ndzBCFQrYOwT21uvihy98YG8C8af1IkSjjtN6RgtCF175iOd9Pf/C98sTjb7VBPq2xroSmUKlLvudyygDF2OA04BbMeYWBj85g6PnlB8NGw+9yvRr419YjchW3m7S/JPoEMJPmyp/CdyLpA3ARlRHyxFmnctL4TKgaKrhP+q+L03N9HOIvEvNyxEbwZ5NIB+AlDzy6+c/Qj7eUVCCCjh4iNq+BCM7Y1bAnRixmqADkRlcZ0hPlHfewbfdmObXOwUXimMJ5y90H1LASFdpD17vgnc8I/lAvBfFEVxBTvkwEt5YoZn0/ZlL4eI3LORTzzq3QBoscgl9/FBeA0zG3Xd1imQzD+vM81fy5nN25xZvmaqOfi38/wVQYSvMGPHmshyfPWcDyE6Usc2RvxAuMxHzy6qbKSyDaT7+1ndla0sKqLQfvS1tsS7UTL8PYSt/9Xzz5PL2KzmOPfcvgRNA2xvk3wL1kfLTC5axUhZrEauEZlo7P3teF7nhblR7UOnCPSyl05UhWQrnr1dwvShCdDzeg02gUflEnphW+ZgwW4+qcEMCCQK3y9Jqdai6u6EE38nX6HmVY+BLFCqP76OL358qKI+m0Lfc10Ai8f630Qp8c/Wkr0Rf6UQ4TlXHgY5h5jnLePP56NFXrfQr8z+ImrWoae6aQ5V+0I0gM5sm/2InGYp79noLjObj4ZeAw9EXdIY61KFrL99Vdr69ZTPUYc9t8/ETJFQV/5aGJVCF6qC/maaOfgvQN8GzV3L9/JeXTxBVWWOqeoHa01aLY84dA85kHJ0MOh6R3wHGk8vlla504p5I1u7+JIur47IVefLXryzBrVIbk0/+tKUwLKchSUnbV6BaNQrMt5bDeTQ+f3YHe2UCxY3SvQ1elDwsXyLYQfFeRtFMnH7+j7diV+w4RRU+Lx810c8Ch4LcAMBnz3mev3o+2tGldvrl+N+Csp3Vzza3NLprgTcCM5sn/8BzgolLac4Hjibj5GUSHL6UG85UO9RRe1hkbKgT6ectwLeFfysq1JfK9HtBkt2QxArdgpjtuKc6+ecDG5aPEJJXtRaF0cCxc8bg6DSEQ4E/BGciMBahB6Qbd31tN+65vsko/TggEjndFnEaUkJv0t5Mu0QD0LaJiNa+dGb08TzwHsXNzsui0Ms7EBgLjHGdppgCnlNaksVURK5HZDfHn7+CN57zeIAmVqE2kqlKPvFCZBjl71u0kTgs/xsFtGrDKX2u1aLJeGvpMDPP+whhGtgdd+qHRdY+M7dnNK0R6cvBZ7yr86POmNMNehjC51E9DJgIjMPdn7nDx7PHEBA7/7HSV0N1I2CPucjKVS2w5Mu0ZE0Lw2Fqfs7SggrzbnWFY6KvvI2wGJGh0r1CEk96pWDqzoJmgQ5U2hE6QXuAiSB/BMxAOBw0v5OLWJ7tjY8KB/97IVNRbkHo48Tz1vKXiwPHQDZM359edRPVdVDihTjDYDY1zH/V8i9X16qp0/XW+/2Cfg7lX1CTzH7YlWD4W2BWMvKxxNtGyvU82penxsHWMeeMAz0BOB1kOjAB6EbKHZnrDcfMf5z0y3RGLC8X6iLV8KQ48rUEDiNyfrzsV6ozHBN9wxAiA7zxbGOOI589twNkJfAkyGeAM4EzgJ76+bOYyApcwzRU5pOTXtzN2V0vaB/qpu+PM/J3oM1XwL94Psdx5/fhbuzvKVs18t9Q2ar2frVp9lv6/Qj9vPXMKO1NbDYQPI+8JtTw7klZO6vVv589dyyqs1DOzbc14yiMdPcnRBwZG1Ayno9RNE1A0XEi5FxRRW+7Fs/FVoHI0Sjt/oGJZ4TiNdsU5RJ0jvAR9IhIHbw++nHSFxprdwr4qyVDuF7CO/nchVvBWYfyIsJNwBEUTWNVju4jz4kupjHAqShvcdwFT7Dq2YFwmWmIvje+F0dGp2F1LRP9oGPr5t+HGqwrtmeE4LWmeOq39+i1aE/q/Yg+uwluiNFUOL1QOKgiRvlYdYCnzSlLpxoLXKG9Uvvn8WLm+R2ocwwO1yJyJMJYivqoAn3fs4if/7jpK0QJJGBmzRP3OncI/usCikxUkPS+pnxPPG8MML1o+ii+poRl4ZNLYATiWwfmfYDkR0F48sZJP2b84plhfvHsdpDXUHMRsIziEp4AT9YwgTIgljgAOjFyHdnMJE6fZzH/N0o/f21kN28+N1rugPlDxxvgPzKujHyinlGOnrd+W+v9/kyf3TRzmVoY/YnIx9u2e5NGOoHWGC7kNQYyZVxIZp4zFpw/Q3gc4WQgv+ynSvrecBL8x03fWOSeh30E7NPwhfioXlW1PYJ9BCNyFEJXsdcZHIkW4BVFcPouGMZ3/RHuweHZ+OknKOdVPx7m6Eu2cuDH88lJOyqzQNt9/ET1EoP3IFwg3fhJOM4sBn/bW+x0FHrTcdAXhvBtst5sSA7Y7etR18S/BKpVIS12+RTTRo0Yy9+qmGb/pT8IOooKuH03jDi+uh2HfLxlBKAHGKokvDpQjuTx50zBMQtRTqbMKUH7HSJk4lfAbbh99GI7XmWvyprGFt4XFLF8CaR0sLcU/1TueJcTV+n6I+AIJL/OLH76yeHtJxxgJ58/92rIfgZkGsWlWl5eAoxW34M3IJejI88UO0BlrS810x9gNBWwe7pWoGGvif/otLZ4sd0M0o2+VTHN/ks/l+8sjQ6Gh3bT0WY/mtCLWuUTHJQWtx1OAEGyx801sPcQ1HkY17mz8h4U+wvKiNgvBCkkTuKj7APK97gvjwNmIpKgE4D+A24FT4p+QnQ9+PmSHRx/4U3AC0jsDhNTIHsSOPnRdaxyGmI0V6O7r5Lgt08RE5xRba7WPD/E5y9Mhnao455EWbTR3DMJY55G5XCkKUscWwdVK2Dacc1jSZQ+AUYSoBsjsplZkN8BKxk4IMktg9FiDyp5vPHMq5xw0TpgZgLUT0loL9lOmrO+2Q63sYt5bWeKBGAQHb1ycuJFncl1AALtQ1KHJnh1yAlfHofK48AR+5xPUFyoeg44ausym/ed4hF0cSLKc8+TDmhp7/ITL+uC4XNBeqz3y82r2URWnLfVklVB2Y7QBxoeBcVB31jSJYvHQWYWmYksO/jLQqCoWDAT1fdDmRqlr6OsgMG4FgNbPQqEq53b9GayycfnmSr+OBs9CVwU5+DFztf+Sb+wjeHoYG+mi6xjfPU7DvkQyAsJjYA9TJ54YSfKrYgcn8CD9nmEN+KIgu1DhczVUXNSBfItbIbW4Vm4u8+U3x3MNu9iK8OFOP883TrQAWuGOOgDTTX15zKv0uZ41rVWUenFEhfGOJBpJVNVhUzV0nePBBu9hlUki7vLWCDeEq6mXQyVlXLlSsJx5fggkC/qEfsn/S5Gc7TQpiXnpDjlY0MSCthriRM5AbiyugIdOxxcnw8n8PN3dAmE3Wv/aXiNQKPpWEbApVzFi9Ca34DnZrG3Wchi8+z0fJRWwykXjWGEL+Nud0Z1Q5LgO4dvWbK8Awz6Oy4x0kcpbs7eDKxatJOTLt4MfMbe6w6WE0qdMG+v3ZZXmOQnFQt9g9DNqZcYXn1iNOaCs4h4FHAD8gmiUppIT9qIkVMwHORp/6bfDaO6FW03iAkNXBqVjw1JKOBCU3/KxT2McDfNcbhygEHPbxjVAWAbItvcgQ9DKB+DDCH5Y/8K+go8Oo6DEb5O8ECGeiFkwT6lUWYEbOtRef5be5vY7xcrQrUcNxEnXJJlxDkH9DCK83PVDEmC71wxyzBG3gcd9CvJ2OhHxyWLTcBn7BU5WE6w99SraQTioq8yiRF9n2ZvR/n5cwxoF4hn6UXS8vHeryJfreH9l343yCgqYJmCaKltjks+QKgRTswEDajMRZiawAO86Ad2gu5A5QPQv0bMBtT08Wuzk/cfrb2j/YVLpoFzDXEpYFUT9YHKmFsjlHGYuOcjeuddAnm0+Ke1IM504GJExpfOYsU/mi+8U7DBDJ6VDIGRC15aW4A+tDD/K3HTZ5Tku63IU5C/qBFeubmq0DpYr3xioI9OzZuim6uAM51ZYBKCaZ58COe1j56GEXVKhQkCBcsSD4Tahah4D5/x0jdQGF2UeW8I15lyaaAbZQyfuzTLLx5v/nIko1MpnPAT5K06/oM38MvVg6RM0IYxKFcnOCDoR9kM+jqYn/AJ3ueVJ+JZu22kJ1ZLolR9HrBtZFaJuCWP7aNKRPxo4pRLxuI4VwDuelZfTzMQsL5ThV52IcpVoK8Du8K0YqLvDzQT7pZ9Vl4lzFKl3nwoziKfRugj/xkdhXlgQzvKZ1wWmiWfSnmLJNYDW5DgEqlqwtUqy1BhbZy+Sg9wFMh4N0mZ8h+sM+XSuFMVn6ZNe4BROJKQ3yfoBFYb/8EbEeFyeRqAS/JUgtNI8cABNoG+gmYe5WePbUngGT1EHsZTD6SGEbAQaNBtPdNghiA8ebxeuq20AOOUuV2onofIybhnSlaYT4JQL7uakYYbHkT4BTj9OJ6eUHz082Hfx2sOjHGKI7kgQoMZT3kIDYTygWA4SKdx+odA9PmcCSKL8Pshw1JS8qm2YXVHzktAFvHaot01vdFo46S5kxCeRPIKOMpPAKijXkxARkEBz7oky7AegmrWb4mss177ZBIsKG1JDYqyIGeBxt3RzQFrgIVgVvKzx5KxTgjjiHcdZDaKXsRDvA25LSyB+DL5ZRSUQiWcemk7yPHApcDkYnzZEWedIw0REPlQxGzitaeGPXHx0S+GGQ1RjwEpvZP3RyBc5NeSpvACwXAwfeP0p4GM5QuXNXc5krthyfSmyadqvgREfhcZzTnPOpFlJyIDFDxb7RYP6qwUk3HPyW4u9jIBmFQagTVYqaMsJgAc5K4Djv/3Oxg5CmNMrHTFrEHkJkRW8mpCyhcgY34PY7Ix8m6ijuL191BM5Eh5/8GsS9oZ0RmoXIswvQlPdICVqrqjGJOUKX40FLDIlCY/sVH0gBwObKZZ88CnzzOMjIwBPaQpz6sdn8G1Am0fbUZqwquLBjn1kp0oOeK3r00FxjFnjmHp0mZ6zM9EJKE9kps0BwxHEf8yri0IdyDyPq88kvC8vJnuc4JrHJFzwP7ItmxJCYdGHFQOQynOG/bGjSZmXZYlx5Eo1yMcg+TnWUKjDe+opMrRV/T9PoS3yY70+3iJi76Pf0rOOM3AqXM7EZkW4svLU1Q8wXcg+l3jpm84EaPNM0OPjGRxdwHqbpp8gulszyz9DgUZyxcu3fe2CFTZBjIQKUsfytSpQvrSbxwiUxnsbq5lQPhc0RrRGP+WtsIQ0gPlylL9v8MRycZIz8HIsxhZxyuPJNtpPvPKDoRDEDEx8u/3L/KgikPnbXER4eJDxBPtiRtNL+jTrujAGTkKketQjqfQQ/MKRiL+2xAljnDcqygbWfGU5whCCaapn37ww0Z86GSQORL3KDHP84t/KBvve7+IeBtioS8zMfTQrDNfXa/rU0oerKMhn7IZxyMcSoYPGdVzcOuB/l9EJbj1awAAHp1JREFUduPd4MQrg6j3Dum2UDoD8icgK3APUEkep1w6DjgcaPcpVRsq8x9Oa2uCTSLtRXizmcbQB/yMNtNfMWWjUJmKYQyx7pjnWdMdgF8BB5dExI3R2gnr9Mu60ZHjgatBjiH+AwSi4BacEWeHLzYxGTdR+Z5yjUH2fJWIBeYtjknADE67bBkrHmuCeVHGA8e1hBXIDoPoKcCr7GsK2MhmkGScx4SjQCcz65LNvNKEjVsycjzKeJLcLtVbBg+Apm7cUz/WA9tY+sPkv4GR49GY1v96qBLhhBU+DSlSCQfX7JUL29b6jZbyvXw8MBv0q8BhFHdlsfEfhaj3rZhmJcoH/OxJv9kkNEqpm74lfZMqVGbPccDJ4W8bfH659ymXXgeBzoToG4TL2eskr3C+eHkWOBXR8WX4sWSsJB9bWm/6YP6K5eoYRKYza972xM18scJsRuivvg5BuI2KzDMR0SNRs57CEsKkcNqVncjIWUBPjPxb4j1l5QDg432i/7wRJXkP/TnXduA4XyD+TVgi55MjNuLA8j0jGvnCJuG+sHjy58NIOT7ix6xL23HMoSgXI5yKyBRrm+blPxLVKLhQmi0of4GYbda01ci2Gh6C/DdD/54+byroLShjrSZPX1tYMKURaD888b48AoqDmM2g0wluSBAHfRczyJrjgBXVvHLdyJoeRpxLfZ3aePi3xxXjg3GWcu5LJ2OAi91DMPYhZyznEzvJ7OlFZIii448Q0sfgvmukzKzyyYKcDvoaSStg9DiQwxHtiJF/SzkIKNxkTNAxQ/4VJJ5NNspBdQYi04l/60zL5Hvphh++SfsqfiGHkYhw0QkgYcy6xDDr8gmQuQyRhYh8BWSKn48IPmP6iZhhMbIco2tY8XB4NBHnM0O0EsasK6YichvIMUhhgXmFMhF0GrF9C3+4D+gDcRKh7/46EXMTsy7rTlReynm4S5/i5j+6HFWbNhx3EpiTOP2KFj62LICf3p9D5D2Q/qplXJvMDgVzAqdfHve8ZgmnzRuLcDEwIQH+/ddBhRufo1GCP4bASdb8POfaTpCv4jrfxcy/yUYtK7ZvxFFsyMvtGqCB/1Hw3G+rVhp14oyrenBGTgbmgByBMBEw0Wa7qPcI7WpQ5X03rMIaEfMy7SM7sCEkrtroR/OfII5bYDjoX2YizAdOAmm381lA1HSELRzCBwg5N0mU+bkR+kVZH4lk5gF32ZhoGLPmTQHmE5r28PLQCP/l5I/lvjedtf72ADeAbuBL8z7g5UdG48CK8jjzyg5G9AjgdOAfQZeDFEzEHofAaqdybPDJpwPkIpDVnHblWlY8FO8SmMsvN/wrFwDHgHg6PrHxH0Ennz+Zc7fjRkfijBo5A2UmyZyCVeUcMOD2lPLBkFlDLOFyyjdwPykRzvraeMSZheoXcY+xm4zv3Ww8BvmX8ia9gly8Zp2gKdENbwdZqvA+Sx+PaMACcq2Nfhn+K32LOnHmlYfgbD8P5XTgULyHVgTbgiC/PhNrVJigyN8B+WPf+bax0pcCvXbgWmZdsYFXHn6tCklUj1mXdIB8G2GK53nx8i/SJ8gERU1N0yt+03Pw3jREbkf0CqC3+hdOGKdelSWrh+JwPshxuGuqV4GsJisfMqLbgc+gmFAd9snGG1+1fA5BuZYsvcQtkx3mJISLgHGlZwf59LJSF/+WsHudMfuCApbfFaUzl5C/RtsFXz9MHedylcCKjviQRWDEeiN4pYTnn1oRs+f1MJI5BuFEVI8EJgLjkQYO0o5636gyHAiLOw/1kjq6gpcfGrQTOxgkYJWukn5lSLUJK+OMeT1gDkflFBxmgB6Ce5SesfITdV3ruwlDiL6O8ge+DkVc9MNxExG+zZeu3MnLD623pKwdc+Zk2dN+I8JpVJJXQ/zLYuBIYGaFd6wu3r1ngONB7uX0edfyk0f6yqROHrMuyWLaDwG+DJyEMhXJH9fnnlaTZflDuznjyjUohyP0hGjUKodwfBbhVGArZ1y1kJcejGc+eNZVRwHz874O2UieGuffE1+6eRDK3sRWZMQHgaMQGZsDu0WxAXRccP1kQW9QkSNJaLNkcfcWNx9b7gV2wlJwgo14WVMh4e55OZNunR97zrVdjOQmoEzGHYH9MaqfQRgLjEE0MI9XeH7UtTeeiLQ2GdjSFN/NUZHXBR7F0TKNVjvI3kBcNfSj7nvy16N/L7/csDPThWMmIUwGnYLwh6hOw10fOg4Kh1MHidfAWyR8MgRYjdDrOmLZ3r9h+h4o+Yb8MOBezrjyJl56aHUFguUxd247v+n4OoarKOwxbuWnQf6FHDhPq8q7wMxo+gXYTPmR5sl20JPJZH7E7Cvns/yhDRWYjB9nz2vHMdNx5HzgBGASSA/iPdrN+076U0TOAwko4HJTTcF0BVjl0wV6GTDMnKvvZOkDjXnlnnHVMcDNwEx8pmcbX7Hw715LKV2byj7hhCVu/ZyRvfC/9/6/Z74f2yj4kxd9Y4o6egtwmia4Favk9WxlBUxb/ntFzbtFkLdeh7rwPcCdzL5qwG86yT9LpVQ43NNqOvO/bnIjPQiduD2ULjdeOko0quk2lu/215439J7vIzysyAZWPBQ9dzZGYU+l51vpl8lTtFhcBPwpZ34tZ9c1gE+GdPBr7QS6MHTk73UAnYh04Js0qLdrXk0F96V/EZUBjJZM87HSt8ZngSNBHuSsr92H4SmW/rB2r8uzrpnA7pFbgdn5zmEV/NTJv8hqRDaLSp8xZsPIiDO9bPqavh/klcJMMEuY/bV7yHziKZbek/zypDOv7AZzAo6eCRzl7wAGefZ1SN5HzGZUJ2OdfqqlPkXFyRjgGnI6mS9dczMv31+7deDMKzsRzgCuRTmMinOOMfIfHO2K0r5PmKDpBG4QNR91XvSNNf/69F0Nz8N/6uIbjkD1JoycBJKsI2YZL+hsOJ3aB5BRqMZXwEUncIY7svFGi+df8YZBKMxr5ffRlPIdwOAzqx0ElHuH6p+xBXgU4XVeeKB8I9UmMFzmYZXewRZfuj4SOAIh3AEopXcLQ2muzJV1kY6HcDV+HNW8RyW+S/NeHwFvAEP20W+j9MsiC0xD5duM8MW8Il5dlSKedXUPGWajejnIdITKe/k2yr/yNGqGyciwA3cg8uOan1cZWdx9ou9gZPhMZl9zH5mxr7N0QbyOSLMva0fbj0T4IspJuKPdLqCjfF3wRLz48BCzr16KcATlDlEoawypitselLPJ6GHMvvpxMnsfY+kjlUdlp8/rIJs5AjFXACeAjqWe5S6N8u8ZAaNC2z5ggs5jKsKDArdNuPiGFdt+dGddy5ImXvjNHsc4Zyt6hbp1tRke/4HBTAnRW1EGR6jB+4UvXkuHDDp8jjVFBMythcbXp5S9z4tomSIHFoW8Vk+V0vOq6Wl4abjv0itwrzLyDC88VEWhqKBVQ/S9/HrlY+W/zBxGUFYWPqIG/tZvZqHpy1sPfX0Q6GP5Dx3OusZOtyH6QYTiDa4zzMkgM3DYzOyvrUT4a1Q34Tg72SvDtEkXhnEg0xA5FjgeZRJoFz5vx7jlU8QmhFdZ/kBOATn76pXGyGrH4Rj7s6st41YYXIV2krspxa82cdbXlqC8yqHjtrJgQX2e0nOumoyaI1D9LMoJ7khXOtwGUQOj3Sr5b8suJ5e7ChiDRrh8FtuPOuiXaHTgniH+bZzs1Zx19euI8wtgA05mJx2/3c3H7e1kzBjUTAWOQvVzuNNn3bjzUJWfEzv//ra8Rw5mr0lkee1W3N3m4hxeG9zO4KPAa5+++JsPAGt++aPvVFX+Jl36zbE4zkmqzlczcARId3HgkTzaqVoBl+tlVhVfCeVMJZEaNOJetTyUS18tLUs6kW0i3Isz8hAvPFSleS6q01KrDMrlK0e/HK1q81ZDo0b6wvsgr7HsgQFvdGz0a6PRDgX/AjkcyCHikDEOmWKaglkpi+ukY5kjj1E+ftyLZ2MIzWT6UW4z4vzUcbQ9nKfW+mJFFlcmM0COQORbbPj1Fs66Zj3o/0F0C7ANMf0YBhkZaQfThdCF0gNMBn4P95ShQ1EmuDQlmx8JlpnuqKb+Akvu7efsa55D9RDENv9eD/1IGKALZCowCcxXAAfBYbiz8DalMuI6h8bU4NfLv/jSGDW0JWGCFt5AuYD4l/QY3KnMs4FZIJunXHrzKlF9F2HLiGa2a0YHjKNG0B6QCcA0gT9VdAZixuU7T822u3cQMdgtvwwpRTlsA+6Gj3+gLzxem0lO8qb+FHnIECJ3I7K1FFX8M5owuMq4eScnVcYG4BWW3V/q8C35QU7n/Nl6Vfk+IjcmXLZMvhHrAMYgHJ5v2N2RiJJfb5HvqagnH5ZwQ5/YkjmXeUKyzsUK02nePuWlMlIot7H0eZKAp2wIiShgVd5DOFJgWkKjzGz+dyjuGdsOQFbUM41WFHzBmhJ5IEITUIMJWiA0WZ/CCwflI5BvMX3M81qPCa41lEurIAf6Q0Tf4Pn7S/awtAzakAPuRi3bIi79wW5zzrUPgBzjKDOax1LR5D5K3jyBcvLSvf065+rbwTxK8s41+xbUb6KWMdC2JwkFrDkRHgW5k+Q7r5EOTi2EjqjOoEUBS9r4RWPIiLzv4FzPkh+sZVk9JDSVbwk5lDeBJ3n+vsD+w6klJgAH9DWUlSy7zzpx5+w120wbN5uMPOc4OqHZDLYOdixDxl8EcjJN3YC+xSHiGwCPURhOZBmSkDEji0ccmQ8yJYEH7GsoTFVZb5TQlo8J7kMbbAyLZpZ8pG0PW4m4T5SCj5j79Kb1JZHSaN2760ukcgvQt+3ZaaPr/hxEdorIKw56PkvuWxvxkCpQQUa255fjuRr+Q/S939QiL9+38qSpSK8G+iI5RD7A8G3adVMojbcc1kM/af6bTV/Yjpg7IRu9GcGL9+Ycddar6i1iZFe4DHgeF1V+sNwnkK9cmtGgH8TSpQ7CdYj07RP8N42+EJxqbxOJ/deOkHGy/VnkjjaRXBLP2Pd+puPIaxaElLAvQkSI3n1I/NfWAhEkX+a+reLUqoQj09hoRzFo48mXblBgszr6sJJ7oq71oT5omIsQv5bKWA3s/Nvzlxr2cHpflCVNJL2q6edw5zJv0+GR1Sx5IDSHLqF3aCn+m01/QJG7ET5g6T3l/Q2W3jeo581/RZQxArdQOBy9Uj2N4tsbb6vztrxNpC+KZc0dsOS+zZw7/1aBBxHpqpd+ZBpbfIvTd4ualuSlkM0kZb0VTPagp2Tv7i8jHJfQQ5KD0ocwgZjM26p0jjhhWj4FnNV2EAdNHYTAVRLbROQNHOf2vUt/sDkeskKmWoW6f2IQ+AC4I5dre50X77UqlEyww/fvF4MKi1V53ln8/ep2X1p8767sufOfVZFPAldS2Gd4f4Nq+e3P/+DgZ83f/dufishciP2Q9X0PeVkVFHBGIJvIGQfud3nr+18fPnb+gvmi8jLI5AQelBR2gt4E8jBUsaa/Gqh2ZjU8DxwaEovAaLqLtQBcxQsbVPjRnm2fXMaqOtc6RuDfsQLuB95QuGc4m1nD4jsj5ZqRRBTwAG7749lZqaUxBPq6qrl32Om2nCsdjb1L7t3ecd5/fxCRPcBVSny9+ZZBvh7ZNrkHYMECh3OvuSVr2saqcgat5c1eCdtxO07xfjMRCj3eTyoMJzACVoXCZHO7yWxU5TaQhUJihx3EBoV+Ve5TZLkRvVNiUsCKdita3gSdkbzpL7Tw33btRT0tpW0zDdvGE0L084JbWwXTV6Lvy51T6HMVryzdCy/lfnx3Y/u9WtAOGCkn2/J8Vkalb1crjUpbj0FYziEMA70Ir6jy6J5nvxee8w3AvzqiIn0LXxb+lU3AhyKcrDDev+FDDPSt6eqmPwT6psAd7Z9wNg0vqr0TOLT4+9sPuOD6R0QYAK5Adaqi7XbeK71TsL5Wkzdp+kSbbfMYWXJ/f/uF191gHOkATlLyB963BP/hcP5qg8Jy4JsUOw2N07dN62QT3gv65/fcmjvp+tufz6/7vlbcjmBLQmEXyuIRNff//N6bh77w9dtj23dakS4sBwX5ItrITwFXmpOMZWgigf/lnhM5aVIjTX/6/FW/wlaBTSA/MxlZ8Zun7toZzXdjOBhlULxdB9u7NSLfOL5VuW9SfTpxR5s7FdYqPCdiXhv48V391XCQgUA5rOU9IvIJg4IsFHH+yVG5Anehfnz0604XyjcArEJYKGbv+v5F4TnyavHxs3fv7LroG0+I6jbgCkWOpHhIRHX1xB9XSx1Lmj4QMQXsheakzxi5zgi3K5wKdLcG//6wW1/kAwfntgzsVOTGmOn70d6WjAna177ByrtvGfriN+64H9e6eDUwOf6HNowdCs86xlm48rs37wLIGhPfAEzkk2KxZvgUsMl7nibbJ2oJDKpr4vlI3EMUfjGSM+v+33N3xj7iDUPI7P8CdnB3anof4eeO6iu7n6k86vUiK5aNpRpEvlEYlKx+V3JmWOCrwCHxPqUxqHvk2kpV7hOn/f3fPFPB6aoKDDx910DP3PkvOblMryAXCZwsbiO4zy7RUXc64yNVrThKGVr8PefAi76xVdS52cAukFniHl/aShgSkTdVuTvjZFapOIdKwlNV7QcdBB/bzuiJH39x180DX7px4SMKQwiXC0ynNaZEHIXNwGLjyAMvfffm4iqDrDE7YmyDurDs/e13wmoDdSCxg91HF7uBXpStCJuBv0GctWTYuuvJ7yV/yksRGjBB71fI4e4DuwF4B3VWdg7phr5KnrsWZIzVX7xxiLBr0d1DE+Yt+N6ewYE+Fa4SOEpHvzHI4TYEy1XlR//24zs/ipN4/6J7c8C6gy/8xlaB9xC+JDBD3e0lR/vda8FuYCPKm4oudcoe/VnCb5++ywG2furCb3xLhf8LfFngUG2NTkifEVmpcJ+Dbvi3Z+/KjbnoemLvgQbQBexJaB2wDS9/96bds//HnU+oaq+gVwgyQ7Cc39wkKAwprFf0cUReenHhjT7rXDYjW2OUTjeWsuafA8bsL7rXAXbnR7nbUPoU/gF0o8KHzojT1//s9xLZhbwy9jsvaAfoVXc0sklE3gXW7uz4zRYeecSp9+TyDIImKKdtjywYBp751Fdu6DPCFSjHM3rewjsVVoMuQXh954/uTGwK5N+euWvHxDnXPbWnI7MOkVOBz0HxBKFWVcSFqYwNwFqUvzSY9TueWVjzHN2vn7lrx6cuuvEREf1I4FzgOEZpNCyuJW69oi+q6rJcLrvtN8+5hwuYTAZxkliN4qeZTWYv6Egs//MbBufc9L1XJeNsEeF8gZNxR8PNdJBzgK3qOoQ+Lci6JbdfH9IHbcb8U4zP7K48AtYsioMWT+Gp5EQS5QRFmfTB+8Fn1BqWYVy38V2K7AJ2gPaB/FJVe4FeVdMrew7Y+au4j1GrC+pRwDZZ2EpvLY5VlZw0qqFRFsPkZaywVZEtovr3KBtyMvLRzqfuicVxISOVFHDd/PvQntE3Udk6InKGUU4HZuBuHdcg/ary94OuV+UvFV7ryGU39j77ncTLaN/Sexxg4/i5N2/GGXkdkZmgRwOHYzVNl3PygfJl0Xu/mvLtK7+DoFsU+RB4V9E1KrrxV4vuaqiM/frp7w6Mn3vzq6ojG0BPBTlF3E5IwEu3Ef5t+YsYBDYKrELkZUfk/X998juD3gRZ8PhAxCl/P5JQwFKOJWDpwq/ngA0X3XrXnY7KOyBfFGEm7kEdSSpiB9gOukbhp4h5fdi09z2/4GqrH0HWmK1xPVgiVl74K5o6jjHajzu/0lO944HtulJ6nxJyKJw4owwDOdzN3XPAkFsRGQAGtRTejdsr/pXALoVd4v52GNjet+i7TZjPrQeSy4j04fa6A8euRZXacnKOSlvTtyvIetjzfxBXxv24jmr9uPO6/4JrWehT1d7cgQf27vjhgthN+BkjluYikv8a4M/3L0+6pslxl970Q5PTdSLyBUWPEeRwGjKPRfKXA7YprAd9W5Q1Rvjwlz+6czAqQ1LYvuiOYeCDCfMWbGDvx6+BHobDf0E4VNzj9vJHytXijESZ+xXLt4PrgLZFkU0o/wdkA8IGcTK9//zUHbF1TrYvusMBtk746g1PoKwGjgGOzSviSViPDKymfpaVz06FDQJrFP5KGFn/z4vuthqJMg47MfQD42OSfw7oA/HKcCibkV5BJlUgVAsGUbZThXPc09/+Rv8lNy58daSj7X0VjhLkaBGOAqYJEqdpOqfoVlXWAG+jrM6OOJsfv/26su1WxshGEXZLLHuK627AsuFQAJ+ee+M4RE5D8e0eo6oUnAKKYesgVks9t1AHLH8v1HFTQHIIDqo5VcmJqKNuYRkWdEhVBkUYUnQQZFBg0KjT/0+L7ozNVbxZ+PRXbzoVZQqNnhRSaZBbLk84fQ53b+acQk6EIYodHd2N6m7E7BaR/t4nqjuDsxFMmnvTkwgXEu8c3ZsgX+598juR84YT597chTjTBT0c5L+Ke+LKVBqbqxoEeoFNCh+q8regG7KqW7bWebB4UvhPX7m5W4wzVYQpoFMF+QPcUfFkKBwhGBscXO/TXnGnMbYK/IOjulWRrSrZ3m1P3t4U+Uy89JvtODpZXHPodIE/xnXQm0z9a0FzuJ3VzcBGhb9RZaMa2fTPT3yn7OzMpAu+2U4756loj6+y1m+YcUBXI2z85RPfLSqeS//X989RxDfyr2WMH0wDDBlYYYTtj9w6v+p2Yu6CJ40wMEbEmSai0wX5I+BQEaYCYyC8hKcChlW1D/hQ4UNF/zfKB4629S1acHVVA4av/vkPOiTnXAji28SlTvlsEGHtY7fO93W096vJyBT7D373km8+CUkoYL78j09EK+ACJl92YzuOTEBlMjAJYZLAp4EJCj0idKN05vkzlCwHQwq7Rdmpwi7gl67TCdtFpA9jev/xsT9vUeuMH4fMu75jby47QWG8IuMEHYs7Ivsd3DnjbqBbhC6gHaWd/PdSV7kWLCpFC5a41pSdwK8U3YHKLoQdwE4V2THl05/YtaqeE8ZixOS5N3eL6ERFJypMEJHfFRivME5cPwHXo9X9/gZ3zfYw7pxuv7idiu0KvxToA7YJ2tuWze346JG7W2AarLUx7/Z72sUx44DJKjJBYJIgnxZ3a8ixuKPjTkrnDQ+ADgID6o6+exX+SdE+YItj6Hvsf/xZVcsfm41UAadoSfzepTcHFHDUPHiUn0J4/kvyI+DNj99RledsAZPnLjCZzJ4u0B51R8KFyt+O2wAbVXVEyCkyLMoQyoCKDArav+WJO1qy8teKKfNuMjh04Ug3Il0oHYh0IOoeOK6aVcWISF4Ba34qSYdRGQaGRHRIkQFjzECX9A/870ceGFVlWwn/6ezrzCd6DujGoRuhG7QL1D3fVWlHxOB2NByUYUUHRWS3IrtHRHb3PtacEfz+jKv//P5O0B4RetzRqHTiOYNZ0SHArXfIbkR27c3I7odvvKqJq1vqQ6qAU7Qkfv/ym59EkxkB//1jtSngFClSpEgCrbAGLkWKEDJimfOKdJa1EKhnfjxFihQpmohUAadoSWTIe0FXcgCt1TE1RYoUKVoEqQJO0ZJwN+IYbS5SpEiRIjmkCjhFSyJjyB9rVu/aqrDdWVNbdIoUKVoIqQJO0ZLIQA1bUVa3+Yj6vKZTpEiRYnSRKuAULQnJGCQRXZmOgFOkSNEaSBVwipaEIJXOWk+RIkWKfRqpAk7RkkjklBZNx78pUqRoHaQKOEVLYj87sjFFihQpQkgVcIqWhElCAac6PUWKFC2EVAGnaEmIMVQ6kLBmmlUva0qRIkWK5JEq4BQtiQwUj7+MDZKq3xQpUrQOUgWcoiWRMamqTJEixf6NVAGnaEkYMcS+aYak23CkSJGidZAq4BQtiYyB+A3GmirgFClStAxSBZyiJZGRuF2wIJ0BTpEiRSshVcApWhIGQ0J7UaZIkSJFSyBVwClaEiYhE3SKFClStApSBZyiJWEkiTVD4sRNMUWKFCnqRaqAU7QkElmGJPQDufgJp0iRIkXtSBVwipZEJpldM7aADMdONUWKFCnqQKqAU7QkxMR7HKG4XtXvOcpgfFRTpEiRon6kCjhFS8JkJFYn6IO7uwYymczmHb/9bToCTpEiRUsgVcApWhIZkdgs0CLCpw7qWjHmkwdtu+ucL6aOWClSpGgJpAo4RUsiY+LbN/I/junZ0n3gAU+O6+neEQ/FFClSpGgcqQJO0ZLICDQ6CSwi/IeDe7Z86pMH3dZ5QMeas086NjU/p0iRomWQKuAULQkxZlu9c8Aikmtvy27p6jzgtYO7D3z5wM4D1l12xkkD8XKYIkWKFI0hVcApWhIicp+BtwVMMVIpLU3yhj1QANH+jJGdB3UesOtT3V27vnL6iena3xQpUrQc0t3pU7Qs5t/xYNagpnwqvyYeMeo4ZsS5/4Y/S52tUqRIkSJFihQpUqRIkSJFihQpUqRIkSJFihQpUvx7xP8Hwz6mtSKA4l8AAAAASUVORK5CYII=;" vertex="1" parent="WYVHdiIaD5ZPn7umsEeB-28">
          <mxGeometry x="285.43" y="111" width="113.13" height="70" as="geometry" />
        </mxCell>
        <mxCell id="lhYBbnEFRuxRtRWHawOc-10" value="" style="verticalLabelPosition=bottom;verticalAlign=top;html=1;strokeWidth=2;shape=mxgraph.arrows2.arrow;dy=0.6;dx=40;notch=0;direction=south;" vertex="1" parent="WYVHdiIaD5ZPn7umsEeB-28">
          <mxGeometry x="320.75" y="421" width="42.5" height="100" as="geometry" />
        </mxCell>
        <mxCell id="lhYBbnEFRuxRtRWHawOc-25" value="" style="verticalLabelPosition=bottom;verticalAlign=top;html=1;strokeWidth=2;shape=mxgraph.arrows2.arrow;dy=0.6;dx=40;notch=0;direction=south;" vertex="1" parent="WYVHdiIaD5ZPn7umsEeB-28">
          <mxGeometry x="318.25" y="221" width="42.5" height="100" as="geometry" />
        </mxCell>
        <mxCell id="lhYBbnEFRuxRtRWHawOc-27" value="" style="verticalLabelPosition=bottom;verticalAlign=top;html=1;strokeWidth=2;shape=mxgraph.arrows2.arrow;dy=0.6;dx=40;notch=0;direction=south;" vertex="1" parent="WYVHdiIaD5ZPn7umsEeB-28">
          <mxGeometry x="320.75" y="681" width="42.5" height="100" as="geometry" />
        </mxCell>
        <mxCell id="WYVHdiIaD5ZPn7umsEeB-32" value="Lemon results" style="swimlane;whiteSpace=wrap;html=1;fontSize=24;" parent="WYVHdiIaD5ZPn7umsEeB-28" vertex="1">
          <mxGeometry x="177.01" y="991" width="330" height="330" as="geometry" />
        </mxCell>
        <mxCell id="5FJPlSHttj1gH7ov65Wy-1" value="" style="sketch=0;pointerEvents=1;shadow=0;dashed=0;html=1;strokeColor=none;fillColor=#505050;labelPosition=center;verticalLabelPosition=bottom;verticalAlign=top;outlineConnect=0;align=center;shape=mxgraph.office.services.excel_services;" parent="WYVHdiIaD5ZPn7umsEeB-32" vertex="1">
          <mxGeometry x="11" y="35" width="45" height="45" as="geometry" />
        </mxCell>
        <mxCell id="lhYBbnEFRuxRtRWHawOc-38" value="&lt;b&gt;&lt;font style=&quot;font-size: 15px;&quot;&gt;Lemon Lexicon NounPPFrame&lt;/font&gt;&lt;/b&gt;" style="text;html=1;align=center;verticalAlign=middle;resizable=0;points=[];autosize=1;strokeColor=none;fillColor=none;" vertex="1" parent="WYVHdiIaD5ZPn7umsEeB-32">
          <mxGeometry x="56" y="42.5" width="240" height="30" as="geometry" />
        </mxCell>
        <mxCell id="lhYBbnEFRuxRtRWHawOc-39" value="" style="sketch=0;pointerEvents=1;shadow=0;dashed=0;html=1;strokeColor=none;fillColor=#505050;labelPosition=center;verticalLabelPosition=bottom;verticalAlign=top;outlineConnect=0;align=center;shape=mxgraph.office.services.excel_services;" vertex="1" parent="WYVHdiIaD5ZPn7umsEeB-32">
          <mxGeometry x="11" y="90" width="45" height="45" as="geometry" />
        </mxCell>
        <mxCell id="lhYBbnEFRuxRtRWHawOc-40" value="&lt;b&gt;&lt;font style=&quot;font-size: 15px;&quot;&gt;Lemon&amp;nbsp; Lexicon Transitive Verb&lt;/font&gt;&lt;/b&gt;&lt;span style=&quot;font-weight: 700; text-wrap: wrap;&quot;&gt;&lt;/span&gt;" style="text;html=1;align=center;verticalAlign=middle;resizable=0;points=[];autosize=1;strokeColor=none;fillColor=none;" vertex="1" parent="WYVHdiIaD5ZPn7umsEeB-32">
          <mxGeometry x="56" y="97.5" width="250" height="30" as="geometry" />
        </mxCell>
        <mxCell id="lhYBbnEFRuxRtRWHawOc-41" value="" style="sketch=0;pointerEvents=1;shadow=0;dashed=0;html=1;strokeColor=none;fillColor=#505050;labelPosition=center;verticalLabelPosition=bottom;verticalAlign=top;outlineConnect=0;align=center;shape=mxgraph.office.services.excel_services;" vertex="1" parent="WYVHdiIaD5ZPn7umsEeB-32">
          <mxGeometry x="11" y="150" width="45" height="45" as="geometry" />
        </mxCell>
        <mxCell id="lhYBbnEFRuxRtRWHawOc-42" value="&lt;b&gt;&lt;font style=&quot;font-size: 15px;&quot;&gt;Lemon Lexicon Intransitive Verb&lt;/font&gt;&lt;/b&gt;" style="text;html=1;align=center;verticalAlign=middle;resizable=0;points=[];autosize=1;strokeColor=none;fillColor=none;" vertex="1" parent="WYVHdiIaD5ZPn7umsEeB-32">
          <mxGeometry x="56" y="157.5" width="250" height="30" as="geometry" />
        </mxCell>
        <mxCell id="lhYBbnEFRuxRtRWHawOc-43" value="" style="sketch=0;pointerEvents=1;shadow=0;dashed=0;html=1;strokeColor=none;fillColor=#505050;labelPosition=center;verticalLabelPosition=bottom;verticalAlign=top;outlineConnect=0;align=center;shape=mxgraph.office.services.excel_services;" vertex="1" parent="WYVHdiIaD5ZPn7umsEeB-32">
          <mxGeometry x="11" y="210" width="45" height="45" as="geometry" />
        </mxCell>
        <mxCell id="lhYBbnEFRuxRtRWHawOc-44" value="&lt;b&gt;&lt;font style=&quot;font-size: 15px;&quot;&gt;Lemon Lexicon Gradable Adjective&amp;nbsp;&lt;/font&gt;&lt;/b&gt;" style="text;html=1;align=center;verticalAlign=middle;resizable=0;points=[];autosize=1;strokeColor=none;fillColor=none;" vertex="1" parent="WYVHdiIaD5ZPn7umsEeB-32">
          <mxGeometry x="56" y="217.5" width="280" height="30" as="geometry" />
        </mxCell>
        <mxCell id="lhYBbnEFRuxRtRWHawOc-45" value="" style="sketch=0;pointerEvents=1;shadow=0;dashed=0;html=1;strokeColor=none;fillColor=#505050;labelPosition=center;verticalLabelPosition=bottom;verticalAlign=top;outlineConnect=0;align=center;shape=mxgraph.office.services.excel_services;" vertex="1" parent="WYVHdiIaD5ZPn7umsEeB-32">
          <mxGeometry x="11" y="270" width="45" height="45" as="geometry" />
        </mxCell>
        <mxCell id="lhYBbnEFRuxRtRWHawOc-46" value="&lt;b&gt;&lt;font style=&quot;font-size: 15px;&quot;&gt;Lemon Lexicon Attribute Adjective&amp;nbsp;&lt;/font&gt;&lt;/b&gt;" style="text;html=1;align=center;verticalAlign=middle;resizable=0;points=[];autosize=1;strokeColor=none;fillColor=none;" vertex="1" parent="WYVHdiIaD5ZPn7umsEeB-32">
          <mxGeometry x="56" y="277.5" width="270" height="30" as="geometry" />
        </mxCell>
        <mxCell id="lhYBbnEFRuxRtRWHawOc-33" value="" style="verticalLabelPosition=bottom;verticalAlign=top;html=1;strokeWidth=2;shape=mxgraph.arrows2.arrow;dy=0.6;dx=40;notch=0;direction=south;" vertex="1" parent="WYVHdiIaD5ZPn7umsEeB-28">
          <mxGeometry x="320.76" y="881" width="42.5" height="100" as="geometry" />
        </mxCell>
        <mxCell id="lhYBbnEFRuxRtRWHawOc-34" value="" style="verticalLabelPosition=bottom;verticalAlign=top;html=1;strokeWidth=2;shape=mxgraph.arrows2.arrow;dy=0.6;dx=40;notch=0;direction=south;" vertex="1" parent="WYVHdiIaD5ZPn7umsEeB-28">
          <mxGeometry x="320.75" y="1331" width="42.5" height="100" as="geometry" />
        </mxCell>
        <mxCell id="5FJPlSHttj1gH7ov65Wy-56" value="&lt;font style=&quot;font-size: 15px;&quot;&gt;Question Grammar Generator&lt;br&gt;&lt;/font&gt;" style="label;whiteSpace=wrap;html=1;image=img/clipart/Gear_128x128.png" parent="WYVHdiIaD5ZPn7umsEeB-28" vertex="1">
          <mxGeometry x="179.5" y="1441" width="324.99" height="120" as="geometry" />
        </mxCell>
        <mxCell id="lhYBbnEFRuxRtRWHawOc-49" value="&lt;font style=&quot;font-size: 15px;&quot;&gt;Post Processing Pipeline&lt;/font&gt;" style="label;whiteSpace=wrap;html=1;image=img/clipart/Gear_128x128.png" vertex="1" parent="WYVHdiIaD5ZPn7umsEeB-28">
          <mxGeometry x="218.88" y="791" width="246.25" height="75" as="geometry" />
        </mxCell>
        <mxCell id="lhYBbnEFRuxRtRWHawOc-50" value="&lt;div style=&quot;&quot;&gt;&lt;span style=&quot;background-color: initial;&quot;&gt;&lt;font style=&quot;font-size: 15px;&quot;&gt;LexExMachina&lt;/font&gt;&lt;/span&gt;&lt;br&gt;&lt;/div&gt;" style="label;whiteSpace=wrap;html=1;image=img/clipart/Gear_128x128.png;align=left;" vertex="1" parent="WYVHdiIaD5ZPn7umsEeB-28">
          <mxGeometry x="230.75" y="331" width="217.5" height="75" as="geometry" />
        </mxCell>
        <mxCell id="lhYBbnEFRuxRtRWHawOc-53" value="" style="shape=image;verticalLabelPosition=bottom;labelBackgroundColor=default;verticalAlign=top;aspect=fixed;imageAspect=0;image=data:image/svg+xml,PHN2ZyB4bWxucz0iaHR0cDovL3d3dy53My5vcmcvMjAwMC9zdmciIHZpZXdCb3g9IjAgMCA5NDMgMTAxOSI+JiN4YTsgIDxwYXRoIGZpbGw9IiMwQzQ3OUMiIGQ9Ik04NDUsNjY4Yy02LTMtMTMtNi0xOS05bDUtMGMwLDAtNDItMTgtNDUtMTUyIGMtNC0xMzMsNDAtMTU2LDQwLTE1NmwtMCwwYzMzLTE3LDYxLTQzLDc5LTc4YzQ4LTkxLDE0LTIwMy03Ny0yNTIgQzcyOS0yNiw2MTcsOCw1NjksOTljLTIwLDM3LTI1LDc4LTE5LDExN2wtMi0zYzAsMCwxMSw0OC0xMDMsMTE5IGMtMTEzLDcxLTE2NSwzNS0xNjUsMzVsMyw1Yy0zLTItNi00LTEwLTZDMTgzLDMxNyw3MCwzNTIsMjIsNDQzIGMtNDgsOTEtMTQsMjAzLDc3LDI1MmM2OCwzNiwxNDcsMjYsMjA0LTE5bC0xLDJjMCwwLDQxLTM0LDE2MCwzMCBjOTQsNTAsMTA4LDEwMCwxMTAsMTE4Yy0yLDY5LDMzLDEzNyw5OCwxNzFjOTEsNDgsMjAzLDE0LDI1Mi03NyBDOTcwLDgyOSw5MzUsNzE3LDg0NSw2Njh6IE02MzUsNjkzYy0xNSw1LTU4LDExLTE0OC0zNyBjLTk4LTUzLTExMy05Ny0xMTUtMTEwYzEtMTYsMS0zMi0yLTQ4bDEsMWMwLDAtOC00MywxMDQtMTEyIGMxMDAtNjIsMTQ2LTUwLDE1NC00N2M1LDQsMTEsNywxNywxMGMxMSw2LDIzLDExLDM1LDE0IGMxNCwxMywzOSw1MCw0MiwxNDljMyw5OS0yNiwxMzctNDIsMTUwQzY2NCw2NzEsNjQ4LDY4MSw2MzUsNjkzeiIvPiYjeGE7ICA8cGF0aCBmaWxsPSIjZmZmIiBkPSJNNjIyLDgxYy01NCw1OS01NSwxNDYtMywxOTZjLTI2LTI1LTI1LTc3LDEtMTI2IGMzLTQsMTMtMTUsMjctMTBjMSwwLDIsMSwzLDFjMywxLDcsMSwxMCwxIGMyMi0xLDM4LTE5LDM3LTQxYy0wLTEwLTQtMTgtMTEtMjVjNTAtMzMsMTA3LTM3LDEzMS0xNWwxLDAgQzc2NSwxMiw2NzcsMjEsNjIyLDgxeiBNNzgsNDMxYy01NCw1OS01NSwxNDYtMDMsMTk2Yy0yNi0yNS0yNS03NywxLTEyNiBjMy00LDEzLTE1LDI3LTEwYzEsMCwyLDEsMywxYzMsMSw3LDEsMTAsMSBjMjItMSwzOC0xOSwzNy00MWMtMC0xMC00LTE4LTExLTI1YzUwLTMzLDEwNy0zNywxMzEtMTVsMSwwIEMyMjEsMzYzLDEzMywzNzEsNzgsNDMxeiBNNjU0LDcyOGMtNTQsNTktNTUsMTQ2LTMsMTk2Yy0yNi0yNS0yNS03NywxLTEyNiBjMy00LDEzLTE1LDI3LTEwYzEsMCwyLDEsMywxYzMsMSw3LDEsMTAsMSBjMjItMSwzOC0xOSwzNy00MWMtMC0xMC00LTE4LTExLTI1YzUwLTMzLDEwNy0zNywxMzEtMTVsMSwwIEM3OTcsNjU5LDcwOSw2NjgsNjU0LDcyOHoiLz4mI3hhOzwvc3ZnPg==;" vertex="1" parent="WYVHdiIaD5ZPn7umsEeB-28">
          <mxGeometry x="537" y="1670.76" width="93" height="100.49" as="geometry" />
        </mxCell>
        <mxCell id="lhYBbnEFRuxRtRWHawOc-55" value="&lt;b&gt;&lt;font style=&quot;font-size: 15px;&quot;&gt;Question in natural language&lt;/font&gt;&lt;/b&gt;" style="text;html=1;align=center;verticalAlign=middle;resizable=0;points=[];autosize=1;strokeColor=none;fillColor=none;" vertex="1" parent="WYVHdiIaD5ZPn7umsEeB-28">
          <mxGeometry x="7" y="1701" width="230" height="30" as="geometry" />
        </mxCell>
        <mxCell id="lhYBbnEFRuxRtRWHawOc-57" value="" style="verticalLabelPosition=bottom;verticalAlign=top;html=1;strokeWidth=2;shape=mxgraph.arrows2.arrow;dy=0.6;dx=40;notch=0;direction=south;rotation=45;" vertex="1" parent="WYVHdiIaD5ZPn7umsEeB-28">
          <mxGeometry x="170" y="1581" width="42.5" height="100" as="geometry" />
        </mxCell>
        <mxCell id="lhYBbnEFRuxRtRWHawOc-58" value="" style="verticalLabelPosition=bottom;verticalAlign=top;html=1;strokeWidth=2;shape=mxgraph.arrows2.arrow;dy=0.6;dx=40;notch=0;direction=south;rotation=315;" vertex="1" parent="WYVHdiIaD5ZPn7umsEeB-28">
          <mxGeometry x="527" y="1581" width="42.5" height="100" as="geometry" />
        </mxCell>
        <mxCell id="lhYBbnEFRuxRtRWHawOc-60" value="" style="shape=doubleArrow;whiteSpace=wrap;html=1;" vertex="1" parent="WYVHdiIaD5ZPn7umsEeB-28">
          <mxGeometry x="237" y="1691" width="300" height="60" as="geometry" />
        </mxCell>
        <mxCell id="lhYBbnEFRuxRtRWHawOc-54" value="&lt;b&gt;&lt;font style=&quot;font-size: 15px;&quot;&gt;SPARQL Query&lt;/font&gt;&lt;/b&gt;" style="text;html=1;align=center;verticalAlign=middle;resizable=0;points=[];autosize=1;strokeColor=none;fillColor=none;" vertex="1" parent="WYVHdiIaD5ZPn7umsEeB-28">
          <mxGeometry x="530" y="1780" width="130" height="30" as="geometry" />
        </mxCell>
      </root>
    </mxGraphModel>
  </diagram>
</mxfile>
